<mxGraphModel dx="0" dy="0" grid="1" gridSize="10" guides="1" tooltips="1" connect="1" arrows="1" fold="1" page="0" pageScale="1" background="none" math="0" shadow="0">
  <root>
    <mxCell id="0" />
    <mxCell id="1" parent="0" />
    <mxCell id="node94" parent="1" vertex="1" value="&lt;p style=&quot;margin:0px;margin-top:4px;text-align:center;&quot;&gt;&lt;i&gt;&amp;lt;&amp;lt;enumeration&amp;gt;&amp;gt;&lt;/i&gt;&lt;br/&gt;&lt;b&gt;Ability&lt;/b&gt;&lt;/p&gt;&lt;hr size=&quot;1&quot;/&gt;&lt;p style=&quot;margin:0 0 0 4px;line-height:1.6;&quot;&gt;+ EXTRACTING: &lt;br/&gt;+ FORAGING: &lt;br/&gt;+ FISHING: &lt;br/&gt;+ FARMING: &lt;/p&gt;&lt;hr size=&quot;1&quot;/&gt;&lt;p style=&quot;margin:0 0 0 4px;line-height:1.6;&quot;&gt;+ values(): Ability[]&lt;br/&gt;+ valueOf(String): Ability&lt;/p&gt;" style="verticalAlign=top;align=left;overflow=fill;fontSize=14;fontFamily=Helvetica;html=1;rounded=0;shadow=0;comic=0;labelBackgroundColor=none;strokeWidth=1;">
      <mxGeometry x="4440" y="2299" width="232" height="230" as="geometry" />
    </mxCell>
    <mxCell id="node48" parent="1" vertex="1" value="&lt;p style=&quot;margin:0px;margin-top:4px;text-align:center;&quot;&gt;&lt;b&gt;Account&lt;/b&gt;&lt;/p&gt;&lt;hr size=&quot;1&quot;/&gt;&lt;p style=&quot;margin:0 0 0 4px;line-height:1.6;&quot;&gt;- golds: Integer&lt;br/&gt;- id: Integer&lt;/p&gt;&lt;hr size=&quot;1&quot;/&gt;&lt;p style=&quot;margin:0 0 0 4px;line-height:1.6;&quot;&gt;+ getId(): Integer&lt;br/&gt;+ getGolds(): Integer&lt;br/&gt;+ setId(Integer): void&lt;br/&gt;+ setGolds(Integer): void&lt;br/&gt;+ toString(): String&lt;/p&gt;" style="verticalAlign=top;align=left;overflow=fill;fontSize=14;fontFamily=Helvetica;html=1;rounded=0;shadow=0;comic=0;labelBackgroundColor=none;strokeWidth=1;">
      <mxGeometry x="6526" y="2080" width="234" height="260" as="geometry" />
    </mxCell>
    <mxCell id="node52" parent="1" vertex="1" value="&lt;p style=&quot;margin:0px;margin-top:4px;text-align:center;&quot;&gt;&lt;i&gt;&amp;lt;&amp;lt;interface&amp;gt;&amp;gt;&lt;/i&gt;&lt;br/&gt;&lt;b&gt;Actor&lt;/b&gt;&lt;/p&gt;&lt;hr size=&quot;1&quot;/&gt;" style="verticalAlign=top;align=left;overflow=fill;fontSize=14;fontFamily=Helvetica;html=1;rounded=0;shadow=0;comic=0;labelBackgroundColor=none;strokeWidth=1;">
      <mxGeometry x="7936" y="1535" width="114" height="44" as="geometry" />
    </mxCell>
    <mxCell id="node34" parent="1" vertex="1" value="&lt;p style=&quot;margin:0px;margin-top:4px;text-align:center;&quot;&gt;&lt;b&gt;Animal&lt;/b&gt;&lt;/p&gt;&lt;hr size=&quot;1&quot;/&gt;&lt;p style=&quot;margin:0 0 0 4px;line-height:1.6;&quot;&gt;- animalType: AnimalType&lt;br/&gt;- tet: Integer&lt;br/&gt;- grassEaten: Boolean&lt;br/&gt;- lastProductGotten: TimeAndDate&lt;br/&gt;- relationShipQuality: Integer&lt;br/&gt;- shaving: Boolean&lt;br/&gt;- owner: Player&lt;br/&gt;- isFeed: Boolean&lt;br/&gt;- milk: Boolean&lt;/p&gt;" style="verticalAlign=top;align=left;overflow=fill;fontSize=14;fontFamily=Helvetica;html=1;rounded=0;shadow=0;comic=0;labelBackgroundColor=none;strokeWidth=1;">
      <mxGeometry x="2187" y="536" width="312" height="316" as="geometry" />
    </mxCell>
    <mxCell id="node58" parent="1" vertex="1" value="&lt;p style=&quot;margin:0px;margin-top:4px;text-align:center;&quot;&gt;&lt;b&gt;AnimalProduct&lt;/b&gt;&lt;/p&gt;&lt;hr size=&quot;1&quot;/&gt;&lt;p style=&quot;margin:0 0 0 4px;line-height:1.6;&quot;&gt;- animalProductType: AnimalProductType&lt;/p&gt;" style="verticalAlign=top;align=left;overflow=fill;fontSize=14;fontFamily=Helvetica;html=1;rounded=0;shadow=0;comic=0;labelBackgroundColor=none;strokeWidth=1;">
      <mxGeometry x="2735" y="4595" width="365" height="82" as="geometry" />
    </mxCell>
    <mxCell id="node28" parent="1" vertex="1" value="&lt;p style=&quot;margin:0px;margin-top:4px;text-align:center;&quot;&gt;&lt;i&gt;&amp;lt;&amp;lt;enumeration&amp;gt;&amp;gt;&lt;/i&gt;&lt;br/&gt;&lt;b&gt;AnimalProductType&lt;/b&gt;&lt;/p&gt;&lt;hr size=&quot;1&quot;/&gt;&lt;p style=&quot;margin:0 0 0 4px;line-height:1.6;&quot;&gt;+ BIG_MILK: &lt;br/&gt;- price: Integer&lt;br/&gt;+ TRUFFLE: &lt;br/&gt;+ HEN_EGG: &lt;br/&gt;+ HEN_BIG_EGG: &lt;br/&gt;+ RABBIT_LEG: &lt;br/&gt;+ MILK: &lt;br/&gt;+ DUCK_FEATHER: &lt;br/&gt;+ DINOSAUR_EGG: &lt;br/&gt;+ GOAT_MILK: &lt;br/&gt;+ DUCK_EGG: &lt;br/&gt;+ BIG_GOAT_MILK: &lt;br/&gt;+ RABBIT_WOOL: &lt;br/&gt;+ SHEEP_WOOL: &lt;/p&gt;&lt;hr size=&quot;1&quot;/&gt;&lt;p style=&quot;margin:0 0 0 4px;line-height:1.6;&quot;&gt;+ values(): AnimalProductType[]&lt;br/&gt;+ valueOf(String): AnimalProductType&lt;/p&gt;" style="verticalAlign=top;align=left;overflow=fill;fontSize=14;fontFamily=Helvetica;html=1;rounded=0;shadow=0;comic=0;labelBackgroundColor=none;strokeWidth=1;">
      <mxGeometry x="3520" y="3714" width="334" height="530" as="geometry" />
    </mxCell>
    <mxCell id="node65" parent="1" vertex="1" value="&lt;p style=&quot;margin:0px;margin-top:4px;text-align:center;&quot;&gt;&lt;i&gt;&amp;lt;&amp;lt;enumeration&amp;gt;&amp;gt;&lt;/i&gt;&lt;br/&gt;&lt;b&gt;AnimalType&lt;/b&gt;&lt;/p&gt;&lt;hr size=&quot;1&quot;/&gt;&lt;p style=&quot;margin:0 0 0 4px;line-height:1.6;&quot;&gt;- productPeriod: Integer&lt;br/&gt;- food: Product&lt;br/&gt;- isBarnAnimal: Boolean&lt;br/&gt;+ PIG: &lt;br/&gt;- productList: List&amp;lt;AnimalProductType&amp;gt;&lt;br/&gt;+ DINOSAUR: &lt;br/&gt;+ DUCK: &lt;br/&gt;+ GOAT: &lt;br/&gt;+ HEN: &lt;br/&gt;+ COW: &lt;br/&gt;+ RABBIT: &lt;br/&gt;+ SHEEP: &lt;br/&gt;- price: Integer&lt;/p&gt;&lt;hr size=&quot;1&quot;/&gt;&lt;p style=&quot;margin:0 0 0 4px;line-height:1.6;&quot;&gt;+ getProductPeriod(): Integer&lt;br/&gt;+ getPrice(): Integer&lt;br/&gt;+ getProductList(): List&amp;lt;AnimalProductType&amp;gt;&lt;br/&gt;+ getFood(): Product&lt;br/&gt;+ getIsBarnAnimal(): Boolean&lt;br/&gt;+ toString(): String&lt;br/&gt;+ valueOf(String): AnimalType&lt;br/&gt;+ values(): AnimalType[]&lt;/p&gt;" style="verticalAlign=top;align=left;overflow=fill;fontSize=14;fontFamily=Helvetica;html=1;rounded=0;shadow=0;comic=0;labelBackgroundColor=none;strokeWidth=1;">
      <mxGeometry x="6072" y="2152" width="394" height="680" as="geometry" />
    </mxCell>
    <mxCell id="node66" parent="1" vertex="1" value="&lt;p style=&quot;margin:0px;margin-top:4px;text-align:center;&quot;&gt;&lt;b&gt;App&lt;/b&gt;&lt;/p&gt;&lt;hr size=&quot;1&quot;/&gt;&lt;p style=&quot;margin:0 0 0 4px;line-height:1.6;&quot;&gt;- users: List&amp;lt;User&amp;gt;&lt;br/&gt;- games: List&amp;lt;Game&amp;gt;&lt;/p&gt;" style="verticalAlign=top;align=left;overflow=fill;fontSize=14;fontFamily=Helvetica;html=1;rounded=0;shadow=0;comic=0;labelBackgroundColor=none;strokeWidth=1;">
      <mxGeometry x="2867" y="575" width="214" height="114" as="geometry" />
    </mxCell>
    <mxCell id="node46" parent="1" vertex="1" value="&lt;p style=&quot;margin:0px;margin-top:4px;text-align:center;&quot;&gt;&lt;i&gt;&amp;lt;&amp;lt;enumeration&amp;gt;&amp;gt;&lt;/i&gt;&lt;br/&gt;&lt;b&gt;Axe&lt;/b&gt;&lt;/p&gt;&lt;hr size=&quot;1&quot;/&gt;&lt;p style=&quot;margin:0 0 0 4px;line-height:1.6;&quot;&gt;- level: int&lt;br/&gt;+ IRIDIUM: &lt;br/&gt;+ CUPPER: &lt;br/&gt;+ GOLD: &lt;br/&gt;- energyCost: int&lt;br/&gt;+ NORMAL: &lt;br/&gt;+ IRON: &lt;/p&gt;&lt;hr size=&quot;1&quot;/&gt;&lt;p style=&quot;margin:0 0 0 4px;line-height:1.6;&quot;&gt;+ valueOf(String): Axe&lt;br/&gt;+ getEnergyCost(): int&lt;br/&gt;+ getLevel(): int&lt;br/&gt;+ values(): Axe[]&lt;/p&gt;" style="verticalAlign=top;align=left;overflow=fill;fontSize=14;fontFamily=Helvetica;html=1;rounded=0;shadow=0;comic=0;labelBackgroundColor=none;strokeWidth=1;">
      <mxGeometry x="1471" y="2149" width="217" height="380" as="geometry" />
    </mxCell>
    <mxCell id="node90" parent="1" vertex="1" value="&lt;p style=&quot;margin:0px;margin-top:4px;text-align:center;&quot;&gt;&lt;b&gt;BackPack&lt;/b&gt;&lt;/p&gt;&lt;hr size=&quot;1&quot;/&gt;&lt;p style=&quot;margin:0 0 0 4px;line-height:1.6;&quot;&gt;- backPackType: BackPackType&lt;br/&gt;- products: Map&amp;lt;Product, Integer&amp;gt;&lt;/p&gt;&lt;hr size=&quot;1&quot;/&gt;&lt;p style=&quot;margin:0 0 0 4px;line-height:1.6;&quot;&gt;+ getProductFromBackPack(Product): void&lt;br/&gt;+ deleteProductFromBackPack(Product): void&lt;br/&gt;+ addProductToBackPack(Product): void&lt;br/&gt;+ checkProductAvailabilityInBackPack(Product): boolean&lt;/p&gt;" style="verticalAlign=top;align=left;overflow=fill;fontSize=14;fontFamily=Helvetica;html=1;rounded=0;shadow=0;comic=0;labelBackgroundColor=none;strokeWidth=1;">
      <mxGeometry x="619" y="1874" width="481" height="230" as="geometry" />
    </mxCell>
    <mxCell id="node104" parent="1" vertex="1" value="&lt;p style=&quot;margin:0px;margin-top:4px;text-align:center;&quot;&gt;&lt;i&gt;&amp;lt;&amp;lt;enumeration&amp;gt;&amp;gt;&lt;/i&gt;&lt;br/&gt;&lt;b&gt;BackPackType&lt;/b&gt;&lt;/p&gt;&lt;hr size=&quot;1&quot;/&gt;&lt;p style=&quot;margin:0 0 0 4px;line-height:1.6;&quot;&gt;+ DELUX_BACKPACK: &lt;br/&gt;+ BIG_BACKPACK: &lt;br/&gt;+ NORMAL_BAKCPACK: &lt;br/&gt;- capacity: Integer&lt;br/&gt;- isInfinite: Boolean&lt;/p&gt;&lt;hr size=&quot;1&quot;/&gt;&lt;p style=&quot;margin:0 0 0 4px;line-height:1.6;&quot;&gt;+ valueOf(String): BackPackType&lt;br/&gt;+ getInfinite(): Boolean&lt;br/&gt;+ getCapacity(): Integer&lt;br/&gt;+ values(): BackPackType[]&lt;/p&gt;" style="verticalAlign=top;align=left;overflow=fill;fontSize=14;fontFamily=Helvetica;html=1;rounded=0;shadow=0;comic=0;labelBackgroundColor=none;strokeWidth=1;">
      <mxGeometry x="2071" y="2213" width="297" height="320" as="geometry" />
    </mxCell>
    <mxCell id="node96" parent="1" vertex="1" value="&lt;p style=&quot;margin:0px;margin-top:4px;text-align:center;&quot;&gt;&lt;i&gt;&amp;lt;&amp;lt;enumeration&amp;gt;&amp;gt;&lt;/i&gt;&lt;br/&gt;&lt;b&gt;BlackSmithStuff&lt;/b&gt;&lt;/p&gt;&lt;hr size=&quot;1&quot;/&gt;&lt;p style=&quot;margin:0 0 0 4px;line-height:1.6;&quot;&gt;+ IRON_ORE: &lt;br/&gt;- mineralType: MineralType&lt;br/&gt;+ COPPER_ORE: &lt;br/&gt;+ GOLD_ORE: &lt;br/&gt;+ COAL: &lt;br/&gt;- price: Integer&lt;br/&gt;- dailyLimit: Integer&lt;/p&gt;&lt;hr size=&quot;1&quot;/&gt;&lt;p style=&quot;margin:0 0 0 4px;line-height:1.6;&quot;&gt;+ valueOf(String): BlackSmithStuff&lt;br/&gt;+ values(): BlackSmithStuff[]&lt;/p&gt;" style="verticalAlign=top;align=left;overflow=fill;fontSize=14;fontFamily=Helvetica;html=1;rounded=0;shadow=0;comic=0;labelBackgroundColor=none;strokeWidth=1;">
      <mxGeometry x="2332" y="2614" width="307" height="320" as="geometry" />
    </mxCell>
    <mxCell id="node35" parent="1" vertex="1" value="&lt;p style=&quot;margin:0px;margin-top:4px;text-align:center;&quot;&gt;&lt;i&gt;&amp;lt;&amp;lt;enumeration&amp;gt;&amp;gt;&lt;/i&gt;&lt;br/&gt;&lt;b&gt;BlackSmithUpgrade&lt;/b&gt;&lt;/p&gt;&lt;hr size=&quot;1&quot;/&gt;&lt;p style=&quot;margin:0 0 0 4px;line-height:1.6;&quot;&gt;+ values(): BlackSmithUpgrade[]&lt;br/&gt;+ valueOf(String): BlackSmithUpgrade&lt;/p&gt;" style="verticalAlign=top;align=left;overflow=fill;fontSize=14;fontFamily=Helvetica;html=1;rounded=0;shadow=0;comic=0;labelBackgroundColor=none;strokeWidth=1;">
      <mxGeometry x="6106" y="2900" width="336" height="133" as="geometry" />
    </mxCell>
    <mxCell id="node79" parent="1" vertex="1" value="&lt;p style=&quot;margin:0px;margin-top:4px;text-align:center;&quot;&gt;&lt;b&gt;Buff&lt;/b&gt;&lt;/p&gt;&lt;hr size=&quot;1&quot;/&gt;&lt;p style=&quot;margin:0 0 0 4px;line-height:1.6;&quot;&gt;- maxPower: Integer&lt;br/&gt;- buffImpact: Integer&lt;br/&gt;- ability: Ability&lt;br/&gt;- id: Integer&lt;/p&gt;&lt;hr size=&quot;1&quot;/&gt;&lt;p style=&quot;margin:0 0 0 4px;line-height:1.6;&quot;&gt;+ getId(): Integer&lt;br/&gt;+ getMaxPower(): Integer&lt;br/&gt;+ getAbility(): Ability&lt;br/&gt;+ getBuffImpact(): Integer&lt;br/&gt;+ setId(Integer): void&lt;br/&gt;+ setMaxPower(Integer): void&lt;br/&gt;+ setAbility(Ability): void&lt;br/&gt;+ setBuffImpact(Integer): void&lt;br/&gt;+ toString(): String&lt;/p&gt;" style="verticalAlign=top;align=left;overflow=fill;fontSize=14;fontFamily=Helvetica;html=1;rounded=0;shadow=0;comic=0;labelBackgroundColor=none;strokeWidth=1;">
      <mxGeometry x="4267" y="657" width="273" height="440" as="geometry" />
    </mxCell>
    <mxCell id="node70" parent="1" vertex="1" value="&lt;p style=&quot;margin:0px;margin-top:4px;text-align:center;&quot;&gt;&lt;b&gt;CookingMenu&lt;/b&gt;&lt;/p&gt;&lt;hr size=&quot;1&quot;/&gt;" style="verticalAlign=top;align=left;overflow=fill;fontSize=14;fontFamily=Helvetica;html=1;rounded=0;shadow=0;comic=0;labelBackgroundColor=none;strokeWidth=1;">
      <mxGeometry x="1803" y="1569" width="196" height="38" as="geometry" />
    </mxCell>
    <mxCell id="node91" parent="1" vertex="1" value="&lt;p style=&quot;margin:0px;margin-top:4px;text-align:center;&quot;&gt;&lt;b&gt;Cottage&lt;/b&gt;&lt;/p&gt;&lt;hr size=&quot;1&quot;/&gt;" style="verticalAlign=top;align=left;overflow=fill;fontSize=14;fontFamily=Helvetica;html=1;rounded=0;shadow=0;comic=0;labelBackgroundColor=none;strokeWidth=1;">
      <mxGeometry x="4539" y="2660" width="139" height="38" as="geometry" />
    </mxCell>
    <mxCell id="node80" parent="1" vertex="1" value="&lt;p style=&quot;margin:0px;margin-top:4px;text-align:center;&quot;&gt;&lt;b&gt;Craft&lt;/b&gt;&lt;/p&gt;&lt;hr size=&quot;1&quot;/&gt;&lt;p style=&quot;margin:0 0 0 4px;line-height:1.6;&quot;&gt;~ craftType: CraftType&lt;br/&gt;- id: Integer&lt;/p&gt;&lt;hr size=&quot;1&quot;/&gt;&lt;p style=&quot;margin:0 0 0 4px;line-height:1.6;&quot;&gt;+ getId(): Integer&lt;br/&gt;+ getCraftType(): CraftType&lt;br/&gt;+ setId(Integer): void&lt;br/&gt;+ setCraftType(CraftType): void&lt;br/&gt;+ toString(): String&lt;/p&gt;" style="verticalAlign=top;align=left;overflow=fill;fontSize=14;fontFamily=Helvetica;html=1;rounded=0;shadow=0;comic=0;labelBackgroundColor=none;strokeWidth=1;">
      <mxGeometry x="5148" y="2448" width="291" height="260" as="geometry" />
    </mxCell>
    <mxCell id="node15" parent="1" vertex="1" value="&lt;p style=&quot;margin:0px;margin-top:4px;text-align:center;&quot;&gt;&lt;i&gt;&amp;lt;&amp;lt;enumeration&amp;gt;&amp;gt;&lt;/i&gt;&lt;br/&gt;&lt;b&gt;CraftType&lt;/b&gt;&lt;/p&gt;&lt;hr size=&quot;1&quot;/&gt;&lt;p style=&quot;margin:0 0 0 4px;line-height:1.6;&quot;&gt;+ MEGA_BOMB: &lt;br/&gt;- sellPrice: Integer&lt;br/&gt;+ IRIDIUM_SPRINKLER: &lt;br/&gt;+ MAYONNAISE_MACHINE: &lt;br/&gt;+ CHEESE_PRERSS: &lt;br/&gt;+ FISH_SMOKER: &lt;br/&gt;+ SPRINKLER: &lt;br/&gt;+ FORNACE: &lt;br/&gt;+ DELUXE_SCARECROW: &lt;br/&gt;+ KEG: &lt;br/&gt;+ LOOM: &lt;br/&gt;+ BOMB: &lt;br/&gt;+ PRESERVES_JAR: &lt;br/&gt;- abilities: Map&amp;lt;Ability, Integer&amp;gt;&lt;br/&gt;+ OIL_MAKER: &lt;br/&gt;+ SCARE_CROW: &lt;br/&gt;+ MYSTIC_TREE_SEED: &lt;br/&gt;- description: String&lt;br/&gt;- products: Map&amp;lt;Product, Integer&amp;gt;&lt;br/&gt;+ CHERRY_BOMB: &lt;br/&gt;+ QUALITY_SPRINKLER: &lt;br/&gt;+ CHARCOAL_KLIN: &lt;br/&gt;+ BEE_HOUSE: &lt;br/&gt;+ DEHYDRATOR: &lt;/p&gt;&lt;hr size=&quot;1&quot;/&gt;&lt;p style=&quot;margin:0 0 0 4px;line-height:1.6;&quot;&gt;+ getDescription(): String&lt;br/&gt;+ getProducts(): Map&amp;lt;Product, Integer&amp;gt;&lt;br/&gt;+ getSellPrice(): Integer&lt;br/&gt;+ getAbilities(): Map&amp;lt;Ability, Integer&amp;gt;&lt;br/&gt;+ toString(): String&lt;br/&gt;+ valueOf(String): CraftType&lt;br/&gt;+ values(): CraftType[]&lt;/p&gt;" style="verticalAlign=top;align=left;overflow=fill;fontSize=14;fontFamily=Helvetica;html=1;rounded=0;shadow=0;comic=0;labelBackgroundColor=none;strokeWidth=1;">
      <mxGeometry x="5316" y="2832" width="354" height="980" as="geometry" />
    </mxCell>
    <mxCell id="node51" parent="1" vertex="1" value="&lt;p style=&quot;margin:0px;margin-top:4px;text-align:center;&quot;&gt;&lt;b&gt;CraftingMenu&lt;/b&gt;&lt;/p&gt;&lt;hr size=&quot;1&quot;/&gt;" style="verticalAlign=top;align=left;overflow=fill;fontSize=14;fontFamily=Helvetica;html=1;rounded=0;shadow=0;comic=0;labelBackgroundColor=none;strokeWidth=1;">
      <mxGeometry x="830" y="1701" width="193" height="38" as="geometry" />
    </mxCell>
    <mxCell id="node49" parent="1" vertex="1" value="&lt;p style=&quot;margin:0px;margin-top:4px;text-align:center;&quot;&gt;&lt;b&gt;Crop&lt;/b&gt;&lt;/p&gt;&lt;hr size=&quot;1&quot;/&gt;&lt;p style=&quot;margin:0 0 0 4px;line-height:1.6;&quot;&gt;- cropType: CropType&lt;/p&gt;" style="verticalAlign=top;align=left;overflow=fill;fontSize=14;fontFamily=Helvetica;html=1;rounded=0;shadow=0;comic=0;labelBackgroundColor=none;strokeWidth=1;">
      <mxGeometry x="1990" y="2597" width="216" height="82" as="geometry" />
    </mxCell>
    <mxCell id="node20" parent="1" vertex="1" value="&lt;p style=&quot;margin:0px;margin-top:4px;text-align:center;&quot;&gt;&lt;i&gt;&amp;lt;&amp;lt;enumeration&amp;gt;&amp;gt;&lt;/i&gt;&lt;br/&gt;&lt;b&gt;CropType&lt;/b&gt;&lt;/p&gt;&lt;hr size=&quot;1&quot;/&gt;&lt;p style=&quot;margin:0 0 0 4px;line-height:1.6;&quot;&gt;+ BLACKBERRY: &lt;br/&gt;+ RED_CABBAGE: &lt;br/&gt;+ HOLLY: &lt;br/&gt;- name: String&lt;br/&gt;+ BOK_CHOY: &lt;br/&gt;+ SPRING_ONION: &lt;br/&gt;+ WHEAT: &lt;br/&gt;- regrowthTime: int&lt;br/&gt;+ BLUE_JAZZ: &lt;br/&gt;+ FAIRY_ROSE: &lt;br/&gt;+ PURPLE_MUSHROOM: &lt;br/&gt;+ COMMON_MUSHROOM: &lt;br/&gt;+ SALMONBERRY: &lt;br/&gt;+ RED_MUSHROOM: &lt;br/&gt;+ BROCCOLI: &lt;br/&gt;- canBecomeGiant: boolean&lt;br/&gt;+ CRANBERRIES: &lt;br/&gt;+ MOREL: &lt;br/&gt;+ CORN: &lt;br/&gt;+ DANDELION: &lt;br/&gt;+ STRAWBERRY: &lt;br/&gt;+ EGGPLANT: &lt;br/&gt;- oneTime: boolean&lt;br/&gt;+ ARTICHOKE: &lt;br/&gt;+ SPICE_BERRY: &lt;br/&gt;+ HOPS: &lt;br/&gt;+ CRYSTAL_FRUIT: &lt;br/&gt;+ GREEN_BEAN: &lt;br/&gt;+ ANCIENT_FRUIT: &lt;br/&gt;+ STARFRUIT: &lt;br/&gt;+ SUNFLOWER: &lt;br/&gt;+ CROCUS: &lt;br/&gt;- baseSellPrice: int&lt;br/&gt;+ SUMMER_SQUASH: &lt;br/&gt;- energy: int&lt;br/&gt;+ SWEET_PEA: &lt;br/&gt;+ POPPY: &lt;br/&gt;+ SUMMER_SPANGLE: &lt;br/&gt;+ COFFEE_BEAN: &lt;br/&gt;+ RADISH: &lt;br/&gt;+ MELON: &lt;br/&gt;- seasons: List&amp;lt;Season&amp;gt;&lt;br/&gt;+ WINTER_ROOT: &lt;br/&gt;+ TULIP: &lt;br/&gt;+ PUMPKIN: &lt;br/&gt;+ BEET: &lt;br/&gt;+ UNMILLED_RICE: &lt;br/&gt;+ WILD_HORSERADISH: &lt;br/&gt;- harvestStages: List&amp;lt;Integer&amp;gt;&lt;br/&gt;+ HAZELNUT: &lt;br/&gt;+ FIDDLEHEAD_FERN: &lt;br/&gt;+ KALE: &lt;br/&gt;+ GRAPE: &lt;br/&gt;+ YAM: &lt;br/&gt;+ POWDERMELON: &lt;br/&gt;+ PARSNIP: &lt;br/&gt;+ RHUBARB: &lt;br/&gt;- source: Source&lt;br/&gt;+ HOT_PEPPER: &lt;br/&gt;+ CHANTERELLE: &lt;br/&gt;+ SWEET_GEM_BERRY: &lt;br/&gt;+ AMARANTH: &lt;br/&gt;+ LEEK: &lt;br/&gt;+ WILD_PLUM: &lt;br/&gt;+ SNOW_YAM: &lt;br/&gt;+ TOMATO: &lt;br/&gt;+ POTATO: &lt;br/&gt;+ BLUEBERRY: &lt;br/&gt;+ CAULIFLOWER: &lt;br/&gt;- isForaging: boolean&lt;br/&gt;+ CARROT: &lt;br/&gt;+ DAFFODIL: &lt;br/&gt;- isEdible: boolean&lt;br/&gt;+ GARLIC: &lt;/p&gt;&lt;hr size=&quot;1&quot;/&gt;&lt;p style=&quot;margin:0 0 0 4px;line-height:1.6;&quot;&gt;+ values(): CropType[]&lt;br/&gt;+ valueOf(String): CropType&lt;/p&gt;" style="verticalAlign=top;align=left;overflow=fill;fontSize=14;fontFamily=Helvetica;html=1;rounded=0;shadow=0;comic=0;labelBackgroundColor=none;strokeWidth=1;">
      <mxGeometry x="3760" y="1314" width="283" height="2330" as="geometry" />
    </mxCell>
    <mxCell id="node103" parent="1" vertex="1" value="&lt;p style=&quot;margin:0px;margin-top:4px;text-align:center;&quot;&gt;&lt;i&gt;&amp;lt;&amp;lt;enumeration&amp;gt;&amp;gt;&lt;/i&gt;&lt;br/&gt;&lt;b&gt;Dialog&lt;/b&gt;&lt;/p&gt;&lt;hr size=&quot;1&quot;/&gt;&lt;p style=&quot;margin:0 0 0 4px;line-height:1.6;&quot;&gt;+ D1: &lt;br/&gt;- timeAndDate: TimeAndDate&lt;br/&gt;- weather: Weather&lt;br/&gt;- friendShipLevel: Integer&lt;br/&gt;- dialog: String&lt;br/&gt;- currentSeason: Season&lt;/p&gt;&lt;hr size=&quot;1&quot;/&gt;&lt;p style=&quot;margin:0 0 0 4px;line-height:1.6;&quot;&gt;+ getWeather(): Weather&lt;br/&gt;+ getCurrentSeason(): Season&lt;br/&gt;+ getTimeAndDate(): TimeAndDate&lt;br/&gt;+ getFriendShipLevel(): Integer&lt;br/&gt;+ getDialog(): String&lt;br/&gt;+ toString(): String&lt;br/&gt;+ valueOf(String): Dialog&lt;br/&gt;+ values(): Dialog[]&lt;/p&gt;" style="verticalAlign=top;align=left;overflow=fill;fontSize=14;fontFamily=Helvetica;html=1;rounded=0;shadow=0;comic=0;labelBackgroundColor=none;strokeWidth=1;">
      <mxGeometry x="1161" y="1618" width="313" height="470" as="geometry" />
    </mxCell>
    <mxCell id="node6" parent="1" vertex="1" value="&lt;p style=&quot;margin:0px;margin-top:4px;text-align:center;&quot;&gt;&lt;b&gt;Farm&lt;/b&gt;&lt;/p&gt;&lt;hr size=&quot;1&quot;/&gt;&lt;p style=&quot;margin:0 0 0 4px;line-height:1.6;&quot;&gt;- players: List&amp;lt;Player&amp;gt;&lt;br/&gt;- greenHouse: GreenHouse&lt;br/&gt;- structures: List&amp;lt;Structure&amp;gt;&lt;/p&gt;&lt;hr size=&quot;1&quot;/&gt;&lt;p style=&quot;margin:0 0 0 4px;line-height:1.6;&quot;&gt;+ createGreenHounse(Tile[]): boolean&lt;/p&gt;" style="verticalAlign=top;align=left;overflow=fill;fontSize=14;fontFamily=Helvetica;html=1;rounded=0;shadow=0;comic=0;labelBackgroundColor=none;strokeWidth=1;">
      <mxGeometry x="3501" y="1084" width="337" height="170" as="geometry" />
    </mxCell>
    <mxCell id="node13" parent="1" vertex="1" value="&lt;p style=&quot;margin:0px;margin-top:4px;text-align:center;&quot;&gt;&lt;b&gt;FarmSelectionMenu&lt;/b&gt;&lt;/p&gt;&lt;hr size=&quot;1&quot;/&gt;" style="verticalAlign=top;align=left;overflow=fill;fontSize=14;fontFamily=Helvetica;html=1;rounded=0;shadow=0;comic=0;labelBackgroundColor=none;strokeWidth=1;">
      <mxGeometry x="1487" y="1522" width="253" height="38" as="geometry" />
    </mxCell>
    <mxCell id="node31" parent="1" vertex="1" value="&lt;p style=&quot;margin:0px;margin-top:4px;text-align:center;&quot;&gt;&lt;i&gt;&amp;lt;&amp;lt;enumeration&amp;gt;&amp;gt;&lt;/i&gt;&lt;br/&gt;&lt;b&gt;FarmType&lt;/b&gt;&lt;/p&gt;&lt;hr size=&quot;1&quot;/&gt;&lt;p style=&quot;margin:0 0 0 4px;line-height:1.6;&quot;&gt;+ GRASS_FARM: &lt;br/&gt;+ DESERT_FARM: &lt;br/&gt;+ BLUE_FARM: &lt;br/&gt;+ FLOWER_FARM: &lt;br/&gt;- tiles: List&amp;lt;Tile&amp;gt;&lt;br/&gt;- structures: List&amp;lt;Structure&amp;gt;&lt;br/&gt;- greenHouse: GreenHouse&lt;br/&gt;+ ROCKY_FARM: &lt;/p&gt;&lt;hr size=&quot;1&quot;/&gt;&lt;p style=&quot;margin:0 0 0 4px;line-height:1.6;&quot;&gt;+ getTiles(): List&amp;lt;Tile&amp;gt;&lt;br/&gt;+ getStructures(): List&amp;lt;Structure&amp;gt;&lt;br/&gt;+ getGreenHouse(): GreenHouse&lt;br/&gt;+ toString(): String&lt;br/&gt;+ valueOf(String): FarmType&lt;br/&gt;+ values(): FarmType[]&lt;/p&gt;" style="verticalAlign=top;align=left;overflow=fill;fontSize=14;fontFamily=Helvetica;html=1;rounded=0;shadow=0;comic=0;labelBackgroundColor=none;strokeWidth=1;">
      <mxGeometry x="4095" y="3704" width="306" height="470" as="geometry" />
    </mxCell>
    <mxCell id="node38" parent="1" vertex="1" value="&lt;p style=&quot;margin:0px;margin-top:4px;text-align:center;&quot;&gt;&lt;b&gt;FarmingMenu&lt;/b&gt;&lt;/p&gt;&lt;hr size=&quot;1&quot;/&gt;" style="verticalAlign=top;align=left;overflow=fill;fontSize=14;fontFamily=Helvetica;html=1;rounded=0;shadow=0;comic=0;labelBackgroundColor=none;strokeWidth=1;">
      <mxGeometry x="2250" y="1047" width="193" height="38" as="geometry" />
    </mxCell>
    <mxCell id="node27" parent="1" vertex="1" value="&lt;p style=&quot;margin:0px;margin-top:4px;text-align:center;&quot;&gt;&lt;b&gt;Fish&lt;/b&gt;&lt;/p&gt;&lt;hr size=&quot;1&quot;/&gt;&lt;p style=&quot;margin:0 0 0 4px;line-height:1.6;&quot;&gt;- name: String&lt;br/&gt;- price: Integer&lt;br/&gt;- season: Season&lt;/p&gt;&lt;hr size=&quot;1&quot;/&gt;&lt;p style=&quot;margin:0 0 0 4px;line-height:1.6;&quot;&gt;+ getName(): String&lt;br/&gt;+ getPrice(): Integer&lt;br/&gt;+ getSeason(): Season&lt;br/&gt;+ setName(String): void&lt;br/&gt;+ setPrice(Integer): void&lt;br/&gt;+ setSeason(Season): void&lt;br/&gt;+ toString(): String&lt;/p&gt;" style="verticalAlign=top;align=left;overflow=fill;fontSize=14;fontFamily=Helvetica;html=1;rounded=0;shadow=0;comic=0;labelBackgroundColor=none;strokeWidth=1;">
      <mxGeometry x="6922" y="1560" width="247" height="350" as="geometry" />
    </mxCell>
    <mxCell id="node3" parent="1" vertex="1" value="&lt;p style=&quot;margin:0px;margin-top:4px;text-align:center;&quot;&gt;&lt;i&gt;&amp;lt;&amp;lt;enumeration&amp;gt;&amp;gt;&lt;/i&gt;&lt;br/&gt;&lt;b&gt;FishType&lt;/b&gt;&lt;/p&gt;&lt;hr size=&quot;1&quot;/&gt;&lt;p style=&quot;margin:0 0 0 4px;line-height:1.6;&quot;&gt;+ SARDINE: &lt;br/&gt;- price: Integer&lt;br/&gt;+ FLOUNDER: &lt;br/&gt;+ PERCH: &lt;br/&gt;+ TILAPIA: &lt;br/&gt;+ LIONFISH: &lt;br/&gt;+ TUNA: &lt;br/&gt;+ GHOSTFISH: &lt;br/&gt;+ MIDNIGHT_CARP: &lt;br/&gt;+ Legend: &lt;br/&gt;+ SQUID: &lt;br/&gt;+ ANGLER: &lt;br/&gt;+ HERRING: &lt;br/&gt;- season: Season&lt;br/&gt;+ SALMON: &lt;br/&gt;+ RAINBOW_TROUT: &lt;br/&gt;+ DORADO: &lt;br/&gt;+ BLUE_DISCUS: &lt;br/&gt;- name: String&lt;br/&gt;+ GLACIERFISH: &lt;br/&gt;+ SHAD: &lt;br/&gt;- isLegendary: Boolean&lt;br/&gt;+ CRIMSONFISH: &lt;br/&gt;+ SUNFISH: &lt;/p&gt;&lt;hr size=&quot;1&quot;/&gt;&lt;p style=&quot;margin:0 0 0 4px;line-height:1.6;&quot;&gt;+ getName(): String&lt;br/&gt;+ getPrice(): Integer&lt;br/&gt;+ getSeason(): Season&lt;br/&gt;+ getIsLegendary(): Boolean&lt;br/&gt;+ toString(): String&lt;br/&gt;+ valueOf(String): FishType&lt;br/&gt;+ values(): FishType[]&lt;/p&gt;" style="verticalAlign=top;align=left;overflow=fill;fontSize=14;fontFamily=Helvetica;html=1;rounded=0;shadow=0;comic=0;labelBackgroundColor=none;strokeWidth=1;">
      <mxGeometry x="2068" y="1162" width="261" height="980" as="geometry" />
    </mxCell>
    <mxCell id="node99" parent="1" vertex="1" value="&lt;p style=&quot;margin:0px;margin-top:4px;text-align:center;&quot;&gt;&lt;i&gt;&amp;lt;&amp;lt;enumeration&amp;gt;&amp;gt;&lt;/i&gt;&lt;br/&gt;&lt;b&gt;FishingPole&lt;/b&gt;&lt;/p&gt;&lt;hr size=&quot;1&quot;/&gt;&lt;p style=&quot;margin:0 0 0 4px;line-height:1.6;&quot;&gt;- price: Integer&lt;br/&gt;- energyCost: Integer&lt;br/&gt;- abilityLevel: Integer&lt;br/&gt;+ BAMBO: &lt;br/&gt;+ FIBER_GLASS: &lt;br/&gt;- qualityPercent: Double&lt;br/&gt;+ COACHING: &lt;br/&gt;+ IRIDIUM: &lt;/p&gt;&lt;hr size=&quot;1&quot;/&gt;&lt;p style=&quot;margin:0 0 0 4px;line-height:1.6;&quot;&gt;+ setAbilityLevel(Integer): void&lt;br/&gt;+ values(): FishingPole[]&lt;br/&gt;+ getEnergyCost(): Integer&lt;br/&gt;+ valueOf(String): FishingPole&lt;br/&gt;+ setPrice(Integer): void&lt;br/&gt;+ finishing(): void&lt;br/&gt;+ getPrice(): Integer&lt;br/&gt;+ getAbilityLevel(): Integer&lt;br/&gt;+ setEnergyCost(Integer): void&lt;/p&gt;" style="verticalAlign=top;align=left;overflow=fill;fontSize=14;fontFamily=Helvetica;html=1;rounded=0;shadow=0;comic=0;labelBackgroundColor=none;strokeWidth=1;">
      <mxGeometry x="277" y="1966" width="282" height="560" as="geometry" />
    </mxCell>
    <mxCell id="node97" parent="1" vertex="1" value="&lt;p style=&quot;margin:0px;margin-top:4px;text-align:center;&quot;&gt;&lt;b&gt;Food&lt;/b&gt;&lt;/p&gt;&lt;hr size=&quot;1&quot;/&gt;&lt;p style=&quot;margin:0 0 0 4px;line-height:1.6;&quot;&gt;- id: Integer&lt;br/&gt;- foodType: FoodType&lt;/p&gt;" style="verticalAlign=top;align=left;overflow=fill;fontSize=14;fontFamily=Helvetica;html=1;rounded=0;shadow=0;comic=0;labelBackgroundColor=none;strokeWidth=1;">
      <mxGeometry x="3920" y="1097" width="219" height="114" as="geometry" />
    </mxCell>
    <mxCell id="node75" parent="1" vertex="1" value="&lt;p style=&quot;margin:0px;margin-top:4px;text-align:center;&quot;&gt;&lt;i&gt;&amp;lt;&amp;lt;enumeration&amp;gt;&amp;gt;&lt;/i&gt;&lt;br/&gt;&lt;b&gt;FoodType&lt;/b&gt;&lt;/p&gt;&lt;hr size=&quot;1&quot;/&gt;&lt;p style=&quot;margin:0 0 0 4px;line-height:1.6;&quot;&gt;- energy: Integer&lt;br/&gt;+ SALAD: &lt;br/&gt;- source: Object&lt;br/&gt;- level: Integer[]&lt;br/&gt;+ OMELET: &lt;br/&gt;+ BACKED_FISH: &lt;br/&gt;- sellPrice: Integer&lt;br/&gt;+ FRIED_EGG: &lt;br/&gt;- ingredients: Map&amp;lt;Product, Integer&amp;gt;&lt;br/&gt;- buff: Buff&lt;/p&gt;&lt;hr size=&quot;1&quot;/&gt;&lt;p style=&quot;margin:0 0 0 4px;line-height:1.6;&quot;&gt;+ valueOf(String): FoodType&lt;br/&gt;+ getIngredients(): Map&amp;lt;Product, Integer&amp;gt;&lt;br/&gt;+ getEnergy(): Integer&lt;br/&gt;+ getSellPrice(): Integer&lt;br/&gt;+ getBuff(): Buff&lt;br/&gt;+ getSource(): Object&lt;br/&gt;+ getLevel(): Integer[]&lt;br/&gt;+ toString(): String&lt;br/&gt;+ values(): FoodType[]&lt;/p&gt;" style="verticalAlign=top;align=left;overflow=fill;fontSize=14;fontFamily=Helvetica;html=1;rounded=0;shadow=0;comic=0;labelBackgroundColor=none;strokeWidth=1;">
      <mxGeometry x="6879" y="2621" width="370" height="620" as="geometry" />
    </mxCell>
    <mxCell id="node62" parent="1" vertex="1" value="&lt;p style=&quot;margin:0px;margin-top:4px;text-align:center;&quot;&gt;&lt;b&gt;Fridge&lt;/b&gt;&lt;/p&gt;&lt;hr size=&quot;1&quot;/&gt;" style="verticalAlign=top;align=left;overflow=fill;fontSize=14;fontFamily=Helvetica;html=1;rounded=0;shadow=0;comic=0;labelBackgroundColor=none;strokeWidth=1;">
      <mxGeometry x="7305" y="1661" width="123" height="38" as="geometry" />
    </mxCell>
    <mxCell id="node10" parent="1" vertex="1" value="&lt;p style=&quot;margin:0px;margin-top:4px;text-align:center;&quot;&gt;&lt;b&gt;FriendShipMenu&lt;/b&gt;&lt;/p&gt;&lt;hr size=&quot;1&quot;/&gt;" style="verticalAlign=top;align=left;overflow=fill;fontSize=14;fontFamily=Helvetica;html=1;rounded=0;shadow=0;comic=0;labelBackgroundColor=none;strokeWidth=1;">
      <mxGeometry x="1959" y="1066" width="219" height="38" as="geometry" />
    </mxCell>
    <mxCell id="node83" parent="1" vertex="1" value="&lt;p style=&quot;margin:0px;margin-top:4px;text-align:center;&quot;&gt;&lt;b&gt;Friendship&lt;/b&gt;&lt;/p&gt;&lt;hr size=&quot;1&quot;/&gt;&lt;p style=&quot;margin:0 0 0 4px;line-height:1.6;&quot;&gt;- secondPlayer: Actor&lt;br/&gt;- friendShipLevel: Integer&lt;br/&gt;- firstPlayer: Actor&lt;br/&gt;- dialogs: Map&amp;lt;String, Actor&amp;gt;&lt;br/&gt;- id: Integer&lt;br/&gt;- xp: Integer&lt;br/&gt;- gifts: List&amp;lt;Gift&amp;gt;&lt;/p&gt;&lt;hr size=&quot;1&quot;/&gt;&lt;p style=&quot;margin:0 0 0 4px;line-height:1.6;&quot;&gt;+ getFriendShipLevel(): Integer&lt;br/&gt;+ getId(): Integer&lt;br/&gt;+ getFirstPlayer(): Actor&lt;br/&gt;+ getSecondPlayer(): Actor&lt;br/&gt;+ setDialogs(Map&amp;lt;String, Actor&amp;gt;): void&lt;br/&gt;+ toString(): String&lt;br/&gt;+ getGifts(): List&amp;lt;Gift&amp;gt;&lt;br/&gt;+ getXp(): Integer&lt;br/&gt;+ setFriendShipLevel(Integer): void&lt;br/&gt;+ setXp(Integer): void&lt;br/&gt;+ setGifts(List&amp;lt;Gift&amp;gt;): void&lt;br/&gt;+ getDialogs(): Map&amp;lt;String, Actor&amp;gt;&lt;br/&gt;+ setId(Integer): void&lt;br/&gt;+ setFirstPlayer(Actor): void&lt;br/&gt;+ setSecondPlayer(Actor): void&lt;br/&gt;+ talkToNPC(): void&lt;br/&gt;+ talkToPlayer(): void&lt;/p&gt;" style="verticalAlign=top;align=left;overflow=fill;fontSize=14;fontFamily=Helvetica;html=1;rounded=0;shadow=0;comic=0;labelBackgroundColor=none;strokeWidth=1;">
      <mxGeometry x="-68" y="2591" width="348" height="770" as="geometry" />
    </mxCell>
    <mxCell id="node77" parent="1" vertex="1" value="&lt;p style=&quot;margin:0px;margin-top:4px;text-align:center;&quot;&gt;&lt;b&gt;Fruit&lt;/b&gt;&lt;/p&gt;&lt;hr size=&quot;1&quot;/&gt;&lt;p style=&quot;margin:0 0 0 4px;line-height:1.6;&quot;&gt;~ fruitType: FruitType&lt;/p&gt;&lt;hr size=&quot;1&quot;/&gt;&lt;p style=&quot;margin:0 0 0 4px;line-height:1.6;&quot;&gt;+ getFruitType(): FruitType&lt;br/&gt;+ setFruitType(FruitType): void&lt;br/&gt;+ toString(): String&lt;/p&gt;" style="verticalAlign=top;align=left;overflow=fill;fontSize=14;fontFamily=Helvetica;html=1;rounded=0;shadow=0;comic=0;labelBackgroundColor=none;strokeWidth=1;">
      <mxGeometry x="340" y="2607" width="281" height="170" as="geometry" />
    </mxCell>
    <mxCell id="node32" parent="1" vertex="1" value="&lt;p style=&quot;margin:0px;margin-top:4px;text-align:center;&quot;&gt;&lt;i&gt;&amp;lt;&amp;lt;enumeration&amp;gt;&amp;gt;&lt;/i&gt;&lt;br/&gt;&lt;b&gt;FruitType&lt;/b&gt;&lt;/p&gt;&lt;hr size=&quot;1&quot;/&gt;&lt;p style=&quot;margin:0 0 0 4px;line-height:1.6;&quot;&gt;+ CHERRY: &lt;br/&gt;+ COMMON_MUSHROOM: &lt;br/&gt;+ APPLE: &lt;br/&gt;+ POMEGRANATE: &lt;br/&gt;+ MANGO: &lt;br/&gt;+ APRICOT: &lt;br/&gt;+ PEACH: &lt;br/&gt;+ ORANGE: &lt;br/&gt;+ MYSTIC_SYRUP: &lt;br/&gt;+ MAPLE_SYRUP: &lt;br/&gt;- fruitEnergy: Integer&lt;br/&gt;- season: Season&lt;br/&gt;+ BANANA: &lt;br/&gt;+ PINE_TAR: &lt;br/&gt;- baseSellPrice: Integer&lt;br/&gt;+ OAK_RESIN: &lt;br/&gt;- Name: String&lt;br/&gt;+ SAP: &lt;br/&gt;- isEdible: Boolean&lt;br/&gt;- treeType: TreeType&lt;/p&gt;&lt;hr size=&quot;1&quot;/&gt;&lt;p style=&quot;margin:0 0 0 4px;line-height:1.6;&quot;&gt;+ getTreeType(): TreeType&lt;br/&gt;+ getName(): String&lt;br/&gt;+ getBaseSellPrice(): Integer&lt;br/&gt;+ getIsEdible(): Boolean&lt;br/&gt;+ getFruitEnergy(): Integer&lt;br/&gt;+ getSeason(): Season&lt;br/&gt;+ toString(): String&lt;br/&gt;+ valueOf(String): FruitType&lt;br/&gt;+ values(): FruitType[]&lt;/p&gt;" style="verticalAlign=top;align=left;overflow=fill;fontSize=14;fontFamily=Helvetica;html=1;rounded=0;shadow=0;comic=0;labelBackgroundColor=none;strokeWidth=1;">
      <mxGeometry x="5016" y="1353" width="261" height="920" as="geometry" />
    </mxCell>
    <mxCell id="node4" parent="1" vertex="1" value="&lt;p style=&quot;margin:0px;margin-top:4px;text-align:center;&quot;&gt;&lt;b&gt;Game&lt;/b&gt;&lt;/p&gt;&lt;hr size=&quot;1&quot;/&gt;&lt;p style=&quot;margin:0 0 0 4px;line-height:1.6;&quot;&gt;- npcs: List&amp;lt;NPC&amp;gt;&lt;br/&gt;- timeAndDate: TimeAndDate&lt;br/&gt;- players: List&amp;lt;Player&amp;gt;&lt;br/&gt;- village: Village&lt;br/&gt;- friendships: List&amp;lt;Friendship&amp;gt;&lt;/p&gt;&lt;hr size=&quot;1&quot;/&gt;&lt;p style=&quot;margin:0 0 0 4px;line-height:1.6;&quot;&gt;+ setFriendships(List&amp;lt;Friendship&amp;gt;): void&lt;br/&gt;+ getVillage(): Village&lt;br/&gt;+ getPlayers(): List&amp;lt;Player&amp;gt;&lt;br/&gt;+ getNpcs(): List&amp;lt;NPC&amp;gt;&lt;br/&gt;+ getFriendships(): List&amp;lt;Friendship&amp;gt;&lt;br/&gt;+ getTimeAndDate(): TimeAndDate&lt;br/&gt;+ setVillage(Village): void&lt;br/&gt;+ setPlayers(List&amp;lt;Player&amp;gt;): void&lt;br/&gt;+ setNpcs(List&amp;lt;NPC&amp;gt;): void&lt;br/&gt;+ setTimeAndDate(TimeAndDate): void&lt;br/&gt;+ toString(): String&lt;/p&gt;" style="verticalAlign=top;align=left;overflow=fill;fontSize=14;fontFamily=Helvetica;html=1;rounded=0;shadow=0;comic=0;labelBackgroundColor=none;strokeWidth=1;">
      <mxGeometry x="7154" y="931" width="352" height="530" as="geometry" />
    </mxCell>
    <mxCell id="node7" parent="1" vertex="1" value="&lt;p style=&quot;margin:0px;margin-top:4px;text-align:center;&quot;&gt;&lt;b&gt;GameMenu&lt;/b&gt;&lt;/p&gt;&lt;hr size=&quot;1&quot;/&gt;" style="verticalAlign=top;align=left;overflow=fill;fontSize=14;fontFamily=Helvetica;html=1;rounded=0;shadow=0;comic=0;labelBackgroundColor=none;strokeWidth=1;">
      <mxGeometry x="898" y="1556" width="172" height="38" as="geometry" />
    </mxCell>
    <mxCell id="node42" parent="1" vertex="1" value="&lt;p style=&quot;margin:0px;margin-top:4px;text-align:center;&quot;&gt;&lt;b&gt;GameMenuController&lt;/b&gt;&lt;/p&gt;&lt;hr size=&quot;1&quot;/&gt;" style="verticalAlign=top;align=left;overflow=fill;fontSize=14;fontFamily=Helvetica;html=1;rounded=0;shadow=0;comic=0;labelBackgroundColor=none;strokeWidth=1;">
      <mxGeometry x="6595" y="1958" width="266" height="38" as="geometry" />
    </mxCell>
    <mxCell id="node81" parent="1" vertex="1" value="&lt;p style=&quot;margin:0px;margin-top:4px;text-align:center;&quot;&gt;&lt;b&gt;Gift&lt;/b&gt;&lt;/p&gt;&lt;hr size=&quot;1&quot;/&gt;&lt;p style=&quot;margin:0 0 0 4px;line-height:1.6;&quot;&gt;- gift: Salable&lt;br/&gt;- gifter: Actor&lt;br/&gt;- gifting: Actor&lt;br/&gt;- rate: Integer&lt;/p&gt;&lt;hr size=&quot;1&quot;/&gt;&lt;p style=&quot;margin:0 0 0 4px;line-height:1.6;&quot;&gt;+ getGift(): Salable&lt;br/&gt;+ getGifter(): Actor&lt;br/&gt;+ getGifting(): Actor&lt;br/&gt;+ getRate(): Integer&lt;br/&gt;+ setGift(Salable): void&lt;br/&gt;+ setGifter(Actor): void&lt;br/&gt;+ setGifting(Actor): void&lt;br/&gt;+ setRate(Integer): void&lt;br/&gt;+ toString(): String&lt;br/&gt;+ giveGiftToPlayer(): void&lt;br/&gt;+ giveGiftToNPC(): void&lt;/p&gt;" style="verticalAlign=top;align=left;overflow=fill;fontSize=14;fontFamily=Helvetica;html=1;rounded=0;shadow=0;comic=0;labelBackgroundColor=none;strokeWidth=1;">
      <mxGeometry x="5666" y="1521" width="241" height="500" as="geometry" />
    </mxCell>
    <mxCell id="node93" parent="1" vertex="1" value="&lt;p style=&quot;margin:0px;margin-top:4px;text-align:center;&quot;&gt;&lt;b&gt;Globals&lt;/b&gt;&lt;/p&gt;&lt;hr size=&quot;1&quot;/&gt;" style="verticalAlign=top;align=left;overflow=fill;fontSize=14;fontFamily=Helvetica;html=1;rounded=0;shadow=0;comic=0;labelBackgroundColor=none;strokeWidth=1;">
      <mxGeometry x="3505" y="891" width="133" height="38" as="geometry" />
    </mxCell>
    <mxCell id="node5" parent="1" vertex="1" value="&lt;p style=&quot;margin:0px;margin-top:4px;text-align:center;&quot;&gt;&lt;b&gt;GreenHouse&lt;/b&gt;&lt;/p&gt;&lt;hr size=&quot;1&quot;/&gt;" style="verticalAlign=top;align=left;overflow=fill;fontSize=14;fontFamily=Helvetica;html=1;rounded=0;shadow=0;comic=0;labelBackgroundColor=none;strokeWidth=1;">
      <mxGeometry x="5791" y="2689" width="182" height="38" as="geometry" />
    </mxCell>
    <mxCell id="node55" parent="1" vertex="1" value="&lt;p style=&quot;margin:0px;margin-top:4px;text-align:center;&quot;&gt;&lt;b&gt;HarvestAbleProduct&lt;/b&gt;&lt;/p&gt;&lt;hr size=&quot;1&quot;/&gt;&lt;p style=&quot;margin:0 0 0 4px;line-height:1.6;&quot;&gt;- containingEnergy: Integer&lt;br/&gt;- isMultiHarvestable: Boolean&lt;br/&gt;- seasonList: List&amp;lt;Season&amp;gt;&lt;br/&gt;- isFarming: Boolean&lt;br/&gt;- basePrice: Integer&lt;br/&gt;- isEnormosable: Boolean&lt;br/&gt;- harvests: List&amp;lt;Integer&amp;gt;&lt;br/&gt;- name: String&lt;br/&gt;- timeDiffBetweenHarvests: Integer&lt;br/&gt;- isEdible: Boolean&lt;br/&gt;- id: Integer&lt;br/&gt;- source: Seed&lt;/p&gt;&lt;hr size=&quot;1&quot;/&gt;&lt;p style=&quot;margin:0 0 0 4px;line-height:1.6;&quot;&gt;+ getIsMultiHarvestable(): Boolean&lt;br/&gt;+ getId(): Integer&lt;br/&gt;+ getName(): String&lt;br/&gt;+ getSource(): Seed&lt;br/&gt;+ setIsFarming(Boolean): void&lt;br/&gt;+ setHarvests(List&amp;lt;Integer&amp;gt;): void&lt;br/&gt;+ setId(Integer): void&lt;br/&gt;+ getIsFarming(): Boolean&lt;br/&gt;+ setSource(Seed): void&lt;br/&gt;+ setSeasonList(List&amp;lt;Season&amp;gt;): void&lt;br/&gt;+ setIsEnormosable(Boolean): void&lt;br/&gt;+ getHarvests(): List&amp;lt;Integer&amp;gt;&lt;br/&gt;+ getTimeDiffBetweenHarvests(): Integer&lt;br/&gt;+ setName(String): void&lt;br/&gt;+ setTimeDiffBetweenHarvests(Integer): void&lt;br/&gt;+ getBasePrice(): Integer&lt;br/&gt;+ getIsEdible(): Boolean&lt;br/&gt;+ getIsEnormosable(): Boolean&lt;br/&gt;+ setBasePrice(Integer): void&lt;br/&gt;+ setIsEdible(Boolean): void&lt;br/&gt;+ setIsMultiHarvestable(Boolean): void&lt;br/&gt;+ setContainingEnergy(Integer): void&lt;br/&gt;+ getSeasonList(): List&amp;lt;Season&amp;gt;&lt;br/&gt;+ getContainingEnergy(): Integer&lt;br/&gt;+ toString(): String&lt;/p&gt;" style="verticalAlign=top;align=left;overflow=fill;fontSize=14;fontFamily=Helvetica;html=1;rounded=0;shadow=0;comic=0;labelBackgroundColor=none;strokeWidth=1;">
      <mxGeometry x="3011" y="3374" width="387" height="1160" as="geometry" />
    </mxCell>
    <mxCell id="node53" parent="1" vertex="1" value="&lt;p style=&quot;margin:0px;margin-top:4px;text-align:center;&quot;&gt;&lt;b&gt;Hay&lt;/b&gt;&lt;/p&gt;&lt;hr size=&quot;1&quot;/&gt;" style="verticalAlign=top;align=left;overflow=fill;fontSize=14;fontFamily=Helvetica;html=1;rounded=0;shadow=0;comic=0;labelBackgroundColor=none;strokeWidth=1;">
      <mxGeometry x="4106" y="3204" width="100" height="38" as="geometry" />
    </mxCell>
    <mxCell id="node84" parent="1" vertex="1" value="&lt;p style=&quot;margin:0px;margin-top:4px;text-align:center;&quot;&gt;&lt;i&gt;&amp;lt;&amp;lt;enumeration&amp;gt;&amp;gt;&lt;/i&gt;&lt;br/&gt;&lt;b&gt;Hoe&lt;/b&gt;&lt;/p&gt;&lt;hr size=&quot;1&quot;/&gt;&lt;p style=&quot;margin:0 0 0 4px;line-height:1.6;&quot;&gt;+ GOLD: &lt;br/&gt;+ NORMAL: &lt;br/&gt;+ IRON: &lt;br/&gt;- energyCost: int&lt;br/&gt;+ IRIDIUM: &lt;br/&gt;+ CUPPER: &lt;br/&gt;- level: int&lt;/p&gt;&lt;hr size=&quot;1&quot;/&gt;&lt;p style=&quot;margin:0 0 0 4px;line-height:1.6;&quot;&gt;+ getEnergyCost(): int&lt;br/&gt;+ valueOf(String): Hoe&lt;br/&gt;+ getLevel(): int&lt;br/&gt;+ values(): Hoe[]&lt;/p&gt;" style="verticalAlign=top;align=left;overflow=fill;fontSize=14;fontFamily=Helvetica;html=1;rounded=0;shadow=0;comic=0;labelBackgroundColor=none;strokeWidth=1;">
      <mxGeometry x="712" y="2243" width="217" height="380" as="geometry" />
    </mxCell>
    <mxCell id="node26" parent="1" vertex="1" value="&lt;p style=&quot;margin:0px;margin-top:4px;text-align:center;&quot;&gt;&lt;b&gt;House&lt;/b&gt;&lt;/p&gt;&lt;hr size=&quot;1&quot;/&gt;" style="verticalAlign=top;align=left;overflow=fill;fontSize=14;fontFamily=Helvetica;html=1;rounded=0;shadow=0;comic=0;labelBackgroundColor=none;strokeWidth=1;">
      <mxGeometry x="4216" y="3430" width="124" height="38" as="geometry" />
    </mxCell>
    <mxCell id="node22" parent="1" vertex="1" value="&lt;p style=&quot;margin:0px;margin-top:4px;text-align:center;&quot;&gt;&lt;b&gt;HusbandryMenu&lt;/b&gt;&lt;/p&gt;&lt;hr size=&quot;1&quot;/&gt;" style="verticalAlign=top;align=left;overflow=fill;fontSize=14;fontFamily=Helvetica;html=1;rounded=0;shadow=0;comic=0;labelBackgroundColor=none;strokeWidth=1;">
      <mxGeometry x="4349" y="2891" width="219" height="38" as="geometry" />
    </mxCell>
    <mxCell id="node9" parent="1" vertex="1" value="&lt;p style=&quot;margin:0px;margin-top:4px;text-align:center;&quot;&gt;&lt;b&gt;InvalidInputException&lt;/b&gt;&lt;/p&gt;&lt;hr size=&quot;1&quot;/&gt;" style="verticalAlign=top;align=left;overflow=fill;fontSize=14;fontFamily=Helvetica;html=1;rounded=0;shadow=0;comic=0;labelBackgroundColor=none;strokeWidth=1;">
      <mxGeometry x="2409" y="1914" width="266" height="38" as="geometry" />
    </mxCell>
    <mxCell id="node78" parent="1" vertex="1" value="&lt;p style=&quot;margin:0px;margin-top:4px;text-align:center;&quot;&gt;&lt;b&gt;Lake&lt;/b&gt;&lt;/p&gt;&lt;hr size=&quot;1&quot;/&gt;" style="verticalAlign=top;align=left;overflow=fill;fontSize=14;fontFamily=Helvetica;html=1;rounded=0;shadow=0;comic=0;labelBackgroundColor=none;strokeWidth=1;">
      <mxGeometry x="6896" y="2440" width="108" height="38" as="geometry" />
    </mxCell>
    <mxCell id="node92" parent="1" vertex="1" value="&lt;p style=&quot;margin:0px;margin-top:4px;text-align:center;&quot;&gt;&lt;b&gt;LoginMenuController&lt;/b&gt;&lt;/p&gt;&lt;hr size=&quot;1&quot;/&gt;" style="verticalAlign=top;align=left;overflow=fill;fontSize=14;fontFamily=Helvetica;html=1;rounded=0;shadow=0;comic=0;labelBackgroundColor=none;strokeWidth=1;">
      <mxGeometry x="6130" y="2049" width="263" height="38" as="geometry" />
    </mxCell>
    <mxCell id="node89" parent="1" vertex="1" value="&lt;p style=&quot;margin:0px;margin-top:4px;text-align:center;&quot;&gt;&lt;b&gt;LoginView&lt;/b&gt;&lt;/p&gt;&lt;hr size=&quot;1&quot;/&gt;" style="verticalAlign=top;align=left;overflow=fill;fontSize=14;fontFamily=Helvetica;html=1;rounded=0;shadow=0;comic=0;labelBackgroundColor=none;strokeWidth=1;">
      <mxGeometry x="424" y="1384" width="162" height="38" as="geometry" />
    </mxCell>
    <mxCell id="node63" parent="1" vertex="1" value="&lt;p style=&quot;margin:0px;margin-top:4px;text-align:center;&quot;&gt;&lt;b&gt;MadeProduct&lt;/b&gt;&lt;/p&gt;&lt;hr size=&quot;1&quot;/&gt;&lt;p style=&quot;margin:0 0 0 4px;line-height:1.6;&quot;&gt;- madeProducts: MadeProductType&lt;br/&gt;- price: Integer&lt;/p&gt;&lt;hr size=&quot;1&quot;/&gt;&lt;p style=&quot;margin:0 0 0 4px;line-height:1.6;&quot;&gt;+ setMadeProducts(MadeProductType): void&lt;br/&gt;+ setPrice(Integer): void&lt;/p&gt;" style="verticalAlign=top;align=left;overflow=fill;fontSize=14;fontFamily=Helvetica;html=1;rounded=0;shadow=0;comic=0;labelBackgroundColor=none;strokeWidth=1;">
      <mxGeometry x="4716" y="2797" width="387" height="170" as="geometry" />
    </mxCell>
    <mxCell id="node1" parent="1" vertex="1" value="&lt;p style=&quot;margin:0px;margin-top:4px;text-align:center;&quot;&gt;&lt;i&gt;&amp;lt;&amp;lt;enumeration&amp;gt;&amp;gt;&lt;/i&gt;&lt;br/&gt;&lt;b&gt;MadeProductType&lt;/b&gt;&lt;/p&gt;&lt;hr size=&quot;1&quot;/&gt;&lt;p style=&quot;margin:0 0 0 4px;line-height:1.6;&quot;&gt;+ JUICE: &lt;br/&gt;+ OIL: &lt;br/&gt;+ HONEY: &lt;br/&gt;+ RAISINS: &lt;br/&gt;+ BEER: &lt;br/&gt;+ PALE_ALE: &lt;br/&gt;+ PICKLES: &lt;br/&gt;+ DUCK_MAYONNAISE: &lt;br/&gt;+ MEAD: &lt;br/&gt;+ SMOKED_FISH: &lt;br/&gt;+ DINOSAUR_MAYONNAISE: &lt;br/&gt;+ COFFE: &lt;br/&gt;- description: String&lt;br/&gt;+ VINEGAR: &lt;br/&gt;+ COAL: &lt;br/&gt;+ TRUFFLE_OIL: &lt;br/&gt;- isCoalNeeded: boolean&lt;br/&gt;+ WINE: &lt;br/&gt;+ MAYONNAISE: &lt;br/&gt;- sellPrice: Integer&lt;br/&gt;- processingTime: TimeAndDate&lt;br/&gt;+ JELLY: &lt;br/&gt;+ any_metal_bar: &lt;br/&gt;+ GOAT_CHEESE: &lt;br/&gt;- isEdible: boolean&lt;br/&gt;+ DRIED_MUSHROOMS: &lt;br/&gt;+ DRIED_FRUIT: &lt;br/&gt;+ CLOTH: &lt;br/&gt;- ingredients: Map&amp;lt;Product, Integer&amp;gt;&lt;br/&gt;+ CHEESE: &lt;br/&gt;- energy: Integer&lt;/p&gt;&lt;hr size=&quot;1&quot;/&gt;&lt;p style=&quot;margin:0 0 0 4px;line-height:1.6;&quot;&gt;+ calcPrice(Product): Integer&lt;br/&gt;+ getDescription(): String&lt;br/&gt;+ getEnergy(): Integer&lt;br/&gt;+ getProcessingTime(): TimeAndDate&lt;br/&gt;+ getIngredients(): Map&amp;lt;Product, Integer&amp;gt;&lt;br/&gt;+ getSellPrice(): Integer&lt;br/&gt;+ isEdible(): boolean&lt;br/&gt;+ isCoalNeeded(): boolean&lt;br/&gt;+ toString(): String&lt;br/&gt;+ values(): MadeProductType[]&lt;br/&gt;+ calcProccesingTime(Product): TimeAndDate&lt;br/&gt;+ isIngredientsValid(Product, Integer, boolean): boolean&lt;br/&gt;- calcNextMorning(): TimeAndDate?&lt;br/&gt;+ calcEnergy(Product): Integer&lt;br/&gt;+ valueOf(String): MadeProductType&lt;/p&gt;" style="verticalAlign=top;align=left;overflow=fill;fontSize=14;fontFamily=Helvetica;html=1;rounded=0;shadow=0;comic=0;labelBackgroundColor=none;strokeWidth=1;">
      <mxGeometry x="3119" y="1501" width="475" height="1430" as="geometry" />
    </mxCell>
    <mxCell id="node45" parent="1" vertex="1" value="&lt;p style=&quot;margin:0px;margin-top:4px;text-align:center;&quot;&gt;&lt;b&gt;Main&lt;/b&gt;&lt;/p&gt;&lt;hr size=&quot;1&quot;/&gt;&lt;p style=&quot;margin:0 0 0 4px;line-height:1.6;&quot;&gt;+ main(String[]): void&lt;/p&gt;" style="verticalAlign=top;align=left;overflow=fill;fontSize=14;fontFamily=Helvetica;html=1;rounded=0;shadow=0;comic=0;labelBackgroundColor=none;strokeWidth=1;">
      <mxGeometry x="5789" y="2082" width="210" height="82" as="geometry" />
    </mxCell>
    <mxCell id="node98" parent="1" vertex="1" value="&lt;p style=&quot;margin:0px;margin-top:4px;text-align:center;&quot;&gt;&lt;b&gt;MainMenu&lt;/b&gt;&lt;/p&gt;&lt;hr size=&quot;1&quot;/&gt;" style="verticalAlign=top;align=left;overflow=fill;fontSize=14;fontFamily=Helvetica;html=1;rounded=0;shadow=0;comic=0;labelBackgroundColor=none;strokeWidth=1;">
      <mxGeometry x="1219" y="1523" width="163" height="38" as="geometry" />
    </mxCell>
    <mxCell id="node41" parent="1" vertex="1" value="&lt;p style=&quot;margin:0px;margin-top:4px;text-align:center;&quot;&gt;&lt;b&gt;MainMenuController&lt;/b&gt;&lt;/p&gt;&lt;hr size=&quot;1&quot;/&gt;" style="verticalAlign=top;align=left;overflow=fill;fontSize=14;fontFamily=Helvetica;html=1;rounded=0;shadow=0;comic=0;labelBackgroundColor=none;strokeWidth=1;">
      <mxGeometry x="5320" y="2333" width="257" height="38" as="geometry" />
    </mxCell>
    <mxCell id="node72" parent="1" vertex="1" value="&lt;p style=&quot;margin:0px;margin-top:4px;text-align:center;&quot;&gt;&lt;i&gt;&amp;lt;&amp;lt;enumeration&amp;gt;&amp;gt;&lt;/i&gt;&lt;br/&gt;&lt;b&gt;MarnieShopAnimal&lt;/b&gt;&lt;/p&gt;&lt;hr size=&quot;1&quot;/&gt;&lt;p style=&quot;margin:0 0 0 4px;line-height:1.6;&quot;&gt;+ values(): MarnieShopAnimal[]&lt;br/&gt;+ valueOf(String): MarnieShopAnimal&lt;/p&gt;" style="verticalAlign=top;align=left;overflow=fill;fontSize=14;fontFamily=Helvetica;html=1;rounded=0;shadow=0;comic=0;labelBackgroundColor=none;strokeWidth=1;">
      <mxGeometry x="7916" y="1669" width="328" height="133" as="geometry" />
    </mxCell>
    <mxCell id="node23" parent="1" vertex="1" value="&lt;p style=&quot;margin:0px;margin-top:4px;text-align:center;&quot;&gt;&lt;i&gt;&amp;lt;&amp;lt;enumeration&amp;gt;&amp;gt;&lt;/i&gt;&lt;br/&gt;&lt;b&gt;MarnieShopAnimalRequierment&lt;/b&gt;&lt;/p&gt;&lt;hr size=&quot;1&quot;/&gt;&lt;p style=&quot;margin:0 0 0 4px;line-height:1.6;&quot;&gt;+ HAY: &lt;br/&gt;+ SHEARS: &lt;br/&gt;+ MILK_pAIL: &lt;/p&gt;&lt;hr size=&quot;1&quot;/&gt;&lt;p style=&quot;margin:0 0 0 4px;line-height:1.6;&quot;&gt;+ values(): MarnieShopAnimalRequierment[]&lt;br/&gt;+ valueOf(String): MarnieShopAnimalRequierment&lt;/p&gt;" style="verticalAlign=top;align=left;overflow=fill;fontSize=14;fontFamily=Helvetica;html=1;rounded=0;shadow=0;comic=0;labelBackgroundColor=none;strokeWidth=1;">
      <mxGeometry x="3458" y="4390" width="424" height="200" as="geometry" />
    </mxCell>
    <mxCell id="node59" parent="1" vertex="1" value="&lt;p style=&quot;margin:0px;margin-top:4px;text-align:center;&quot;&gt;&lt;b&gt;Marry&lt;/b&gt;&lt;/p&gt;&lt;hr size=&quot;1&quot;/&gt;&lt;p style=&quot;margin:0 0 0 4px;line-height:1.6;&quot;&gt;- wife: Player&lt;br/&gt;- accepted: Boolean&lt;br/&gt;- request: TimeAndDate&lt;br/&gt;- husband: Player&lt;br/&gt;- id: Integer&lt;/p&gt;&lt;hr size=&quot;1&quot;/&gt;&lt;p style=&quot;margin:0 0 0 4px;line-height:1.6;&quot;&gt;+ getWife(): Player&lt;br/&gt;+ getId(): Integer&lt;br/&gt;+ getHusband(): Player&lt;br/&gt;+ getRequest(): TimeAndDate&lt;br/&gt;+ getAccepted(): Boolean&lt;br/&gt;+ setId(Integer): void&lt;br/&gt;+ setHusband(Player): void&lt;br/&gt;+ setWife(Player): void&lt;br/&gt;+ setRequest(TimeAndDate): void&lt;br/&gt;+ setAccepted(Boolean): void&lt;br/&gt;+ toString(): String&lt;/p&gt;" style="verticalAlign=top;align=left;overflow=fill;fontSize=14;fontFamily=Helvetica;html=1;rounded=0;shadow=0;comic=0;labelBackgroundColor=none;strokeWidth=1;">
      <mxGeometry x="2559" y="-17" width="301" height="530" as="geometry" />
    </mxCell>
    <mxCell id="node71" parent="1" vertex="1" value="&lt;p style=&quot;margin:0px;margin-top:4px;text-align:center;&quot;&gt;&lt;b&gt;Menu&lt;/b&gt;&lt;/p&gt;&lt;hr size=&quot;1&quot;/&gt;" style="verticalAlign=top;align=left;overflow=fill;fontSize=14;fontFamily=Helvetica;html=1;rounded=0;shadow=0;comic=0;labelBackgroundColor=none;strokeWidth=1;">
      <mxGeometry x="644" y="1287" width="117" height="38" as="geometry" />
    </mxCell>
    <mxCell id="node57" parent="1" vertex="1" value="&lt;p style=&quot;margin:0px;margin-top:4px;text-align:center;&quot;&gt;&lt;b&gt;MenuController&lt;/b&gt;&lt;/p&gt;&lt;hr size=&quot;1&quot;/&gt;" style="verticalAlign=top;align=left;overflow=fill;fontSize=14;fontFamily=Helvetica;html=1;rounded=0;shadow=0;comic=0;labelBackgroundColor=none;strokeWidth=1;">
      <mxGeometry x="6063" y="1944" width="211" height="38" as="geometry" />
    </mxCell>
    <mxCell id="node47" parent="1" vertex="1" value="&lt;p style=&quot;margin:0px;margin-top:4px;text-align:center;&quot;&gt;&lt;b&gt;MilkPail&lt;/b&gt;&lt;/p&gt;&lt;hr size=&quot;1&quot;/&gt;&lt;p style=&quot;margin:0 0 0 4px;line-height:1.6;&quot;&gt;- instance: MilkPail&lt;br/&gt;- price: Integer&lt;br/&gt;- energyUse: Integer&lt;/p&gt;&lt;hr size=&quot;1&quot;/&gt;&lt;p style=&quot;margin:0 0 0 4px;line-height:1.6;&quot;&gt;+ getInstance(): MilkPail&lt;/p&gt;" style="verticalAlign=top;align=left;overflow=fill;fontSize=14;fontFamily=Helvetica;html=1;rounded=0;shadow=0;comic=0;labelBackgroundColor=none;strokeWidth=1;">
      <mxGeometry x="2452" y="2235" width="230" height="170" as="geometry" />
    </mxCell>
    <mxCell id="node14" parent="1" vertex="1" value="&lt;p style=&quot;margin:0px;margin-top:4px;text-align:center;&quot;&gt;&lt;b&gt;Mineral&lt;/b&gt;&lt;/p&gt;&lt;hr size=&quot;1&quot;/&gt;&lt;p style=&quot;margin:0 0 0 4px;line-height:1.6;&quot;&gt;- foragingMineralType: MineralType&lt;/p&gt;" style="verticalAlign=top;align=left;overflow=fill;fontSize=14;fontFamily=Helvetica;html=1;rounded=0;shadow=0;comic=0;labelBackgroundColor=none;strokeWidth=1;">
      <mxGeometry x="4732" y="2442" width="320" height="82" as="geometry" />
    </mxCell>
    <mxCell id="node74" parent="1" vertex="1" value="&lt;p style=&quot;margin:0px;margin-top:4px;text-align:center;&quot;&gt;&lt;i&gt;&amp;lt;&amp;lt;enumeration&amp;gt;&amp;gt;&lt;/i&gt;&lt;br/&gt;&lt;b&gt;MineralType&lt;/b&gt;&lt;/p&gt;&lt;hr size=&quot;1&quot;/&gt;&lt;p style=&quot;margin:0 0 0 4px;line-height:1.6;&quot;&gt;+ FIRE_QUARTZ: &lt;br/&gt;+ JADE: &lt;br/&gt;+ COPPER_ORE: &lt;br/&gt;+ GOLD_ORE: &lt;br/&gt;+ COPPER: &lt;br/&gt;+ GOLD: &lt;br/&gt;+ COAL: &lt;br/&gt;+ TOPAZ: &lt;br/&gt;+ PRISMATIC_SHARED: &lt;br/&gt;+ QUARTZ: &lt;br/&gt;+ FROZEN_TEAR: &lt;br/&gt;+ EMERALD: &lt;br/&gt;+ AQUAMARINE: &lt;br/&gt;- sellPrice: Integer&lt;br/&gt;+ RUBY: &lt;br/&gt;+ IRON: &lt;br/&gt;- description: String&lt;br/&gt;+ EARTH_CRYSTAL: &lt;br/&gt;+ AMETHYST: &lt;br/&gt;+ IRIDIUM: &lt;br/&gt;+ DIAMOND: &lt;br/&gt;+ IRON_ORE: &lt;/p&gt;&lt;hr size=&quot;1&quot;/&gt;&lt;p style=&quot;margin:0 0 0 4px;line-height:1.6;&quot;&gt;+ valueOf(String): MineralType&lt;br/&gt;+ values(): MineralType[]&lt;/p&gt;" style="verticalAlign=top;align=left;overflow=fill;fontSize=14;fontFamily=Helvetica;html=1;rounded=0;shadow=0;comic=0;labelBackgroundColor=none;strokeWidth=1;">
      <mxGeometry x="2555" y="3323" width="278" height="770" as="geometry" />
    </mxCell>
    <mxCell id="node43" parent="1" vertex="1" value="&lt;p style=&quot;margin:0px;margin-top:4px;text-align:center;&quot;&gt;&lt;b&gt;Mission&lt;/b&gt;&lt;/p&gt;&lt;hr size=&quot;1&quot;/&gt;&lt;p style=&quot;margin:0 0 0 4px;line-height:1.6;&quot;&gt;- request: Map&amp;lt;Salable, Integer&amp;gt;&lt;br/&gt;- id: Integer&lt;br/&gt;- requester: Actor&lt;br/&gt;- doer: Actor&lt;br/&gt;- reward: Map&amp;lt;Salable, Integer&amp;gt;&lt;br/&gt;- requieredLevel: Integer&lt;/p&gt;&lt;hr size=&quot;1&quot;/&gt;&lt;p style=&quot;margin:0 0 0 4px;line-height:1.6;&quot;&gt;+ getDoer(): Actor&lt;br/&gt;+ getMission(): void&lt;br/&gt;+ getId(): Integer&lt;br/&gt;+ getRequester(): Actor&lt;br/&gt;+ setRequieredLevel(Integer): void&lt;br/&gt;+ getRequest(): Map&amp;lt;Salable, Integer&amp;gt;&lt;br/&gt;+ getReward(): Map&amp;lt;Salable, Integer&amp;gt;&lt;br/&gt;+ getRequieredLevel(): Integer&lt;br/&gt;+ setId(Integer): void&lt;br/&gt;+ setDoer(Actor): void&lt;br/&gt;+ toString(): String&lt;br/&gt;+ setReward(Map&amp;lt;Salable, Integer&amp;gt;): void&lt;br/&gt;+ setRequester(Actor): void&lt;br/&gt;+ setRequest(Map&amp;lt;Salable, Integer&amp;gt;): void&lt;br/&gt;+ giveMission(): void&lt;/p&gt;" style="verticalAlign=top;align=left;overflow=fill;fontSize=14;fontFamily=Helvetica;html=1;rounded=0;shadow=0;comic=0;labelBackgroundColor=none;strokeWidth=1;">
      <mxGeometry x="-180" y="1191" width="373" height="680" as="geometry" />
    </mxCell>
    <mxCell id="node36" parent="1" vertex="1" value="&lt;p style=&quot;margin:0px;margin-top:4px;text-align:center;&quot;&gt;&lt;b&gt;MixedSeeds&lt;/b&gt;&lt;/p&gt;&lt;hr size=&quot;1&quot;/&gt;&lt;p style=&quot;margin:0 0 0 4px;line-height:1.6;&quot;&gt;- mixedSeedsType: MixedSeedsType&lt;/p&gt;" style="verticalAlign=top;align=left;overflow=fill;fontSize=14;fontFamily=Helvetica;html=1;rounded=0;shadow=0;comic=0;labelBackgroundColor=none;strokeWidth=1;">
      <mxGeometry x="4756" y="2640" width="329" height="82" as="geometry" />
    </mxCell>
    <mxCell id="node25" parent="1" vertex="1" value="&lt;p style=&quot;margin:0px;margin-top:4px;text-align:center;&quot;&gt;&lt;i&gt;&amp;lt;&amp;lt;enumeration&amp;gt;&amp;gt;&lt;/i&gt;&lt;br/&gt;&lt;b&gt;MixedSeedsType&lt;/b&gt;&lt;/p&gt;&lt;hr size=&quot;1&quot;/&gt;&lt;p style=&quot;margin:0 0 0 4px;line-height:1.6;&quot;&gt;+ FALL: &lt;br/&gt;+ WINTER: &lt;br/&gt;+ SUMMER: &lt;br/&gt;+ SPRING: &lt;br/&gt;# seedTypeList: List&amp;lt;SeedType&amp;gt;&lt;/p&gt;&lt;hr size=&quot;1&quot;/&gt;&lt;p style=&quot;margin:0 0 0 4px;line-height:1.6;&quot;&gt;+ valueOf(String): MixedSeedsType&lt;br/&gt;# initialize(): void&lt;br/&gt;+ values(): MixedSeedsType[]&lt;/p&gt;" style="verticalAlign=top;align=left;overflow=fill;fontSize=14;fontFamily=Helvetica;html=1;rounded=0;shadow=0;comic=0;labelBackgroundColor=none;strokeWidth=1;">
      <mxGeometry x="7101" y="2250" width="315" height="290" as="geometry" />
    </mxCell>
    <mxCell id="node8" parent="1" vertex="1" value="&lt;p style=&quot;margin:0px;margin-top:4px;text-align:center;&quot;&gt;&lt;i&gt;&amp;lt;&amp;lt;enumeration&amp;gt;&amp;gt;&lt;/i&gt;&lt;br/&gt;&lt;b&gt;NPC&lt;/b&gt;&lt;/p&gt;&lt;hr size=&quot;1&quot;/&gt;&lt;p style=&quot;margin:0 0 0 4px;line-height:1.6;&quot;&gt;+ LIA: &lt;br/&gt;- name: String&lt;br/&gt;- missions: List&amp;lt;Mission&amp;gt;&lt;br/&gt;+ SEBASTIAN: &lt;br/&gt;- personality: String&lt;br/&gt;- npChHouse: NPCHouse&lt;br/&gt;+ EBIGIL: &lt;br/&gt;+ HARVEY: &lt;br/&gt;- job: String&lt;br/&gt;- id: Integer&lt;br/&gt;- favorites: List&amp;lt;Salable&amp;gt;&lt;br/&gt;+ RABIN: &lt;/p&gt;&lt;hr size=&quot;1&quot;/&gt;&lt;p style=&quot;margin:0 0 0 4px;line-height:1.6;&quot;&gt;+ getId(): Integer&lt;br/&gt;+ getName(): String&lt;br/&gt;+ getJob(): String&lt;br/&gt;+ getFavorites(): List&amp;lt;Salable&amp;gt;&lt;br/&gt;+ getPersonality(): String&lt;br/&gt;+ getNpChHouse(): NPCHouse&lt;br/&gt;+ getMissions(): List&amp;lt;Mission&amp;gt;&lt;br/&gt;+ toString(): String&lt;br/&gt;+ valueOf(String): NPC&lt;br/&gt;+ values(): NPC[]&lt;/p&gt;" style="verticalAlign=top;align=left;overflow=fill;fontSize=14;fontFamily=Helvetica;html=1;rounded=0;shadow=0;comic=0;labelBackgroundColor=none;strokeWidth=1;">
      <mxGeometry x="6529" y="2795" width="283" height="710" as="geometry" />
    </mxCell>
    <mxCell id="node19" parent="1" vertex="1" value="&lt;p style=&quot;margin:0px;margin-top:4px;text-align:center;&quot;&gt;&lt;b&gt;NPCHouse&lt;/b&gt;&lt;/p&gt;&lt;hr size=&quot;1&quot;/&gt;" style="verticalAlign=top;align=left;overflow=fill;fontSize=14;fontFamily=Helvetica;html=1;rounded=0;shadow=0;comic=0;labelBackgroundColor=none;strokeWidth=1;">
      <mxGeometry x="2641" y="4293" width="167" height="38" as="geometry" />
    </mxCell>
    <mxCell id="node29" parent="1" vertex="1" value="&lt;p style=&quot;margin:0px;margin-top:4px;text-align:center;&quot;&gt;&lt;i&gt;&amp;lt;&amp;lt;enumeration&amp;gt;&amp;gt;&lt;/i&gt;&lt;br/&gt;&lt;b&gt;Pickaxe&lt;/b&gt;&lt;/p&gt;&lt;hr size=&quot;1&quot;/&gt;&lt;p style=&quot;margin:0 0 0 4px;line-height:1.6;&quot;&gt;+ GOLD: &lt;br/&gt;+ NORMAL: &lt;br/&gt;+ CUPPER: &lt;br/&gt;- level: int&lt;br/&gt;+ IRIDIUM: &lt;br/&gt;- energyCost: int&lt;br/&gt;+ IRON: &lt;/p&gt;&lt;hr size=&quot;1&quot;/&gt;&lt;p style=&quot;margin:0 0 0 4px;line-height:1.6;&quot;&gt;+ values(): Pickaxe[]&lt;br/&gt;+ getLevel(): int&lt;br/&gt;+ valueOf(String): Pickaxe&lt;/p&gt;" style="verticalAlign=top;align=left;overflow=fill;fontSize=14;fontFamily=Helvetica;html=1;rounded=0;shadow=0;comic=0;labelBackgroundColor=none;strokeWidth=1;">
      <mxGeometry x="2923" y="742" width="243" height="350" as="geometry" />
    </mxCell>
    <mxCell id="node101" parent="1" vertex="1" value="&lt;p style=&quot;margin:0px;margin-top:4px;text-align:center;&quot;&gt;&lt;b&gt;Player&lt;/b&gt;&lt;/p&gt;&lt;hr size=&quot;1&quot;/&gt;&lt;p style=&quot;margin:0 0 0 4px;line-height:1.6;&quot;&gt;+ user: User&lt;br/&gt;- buff: Buff&lt;br/&gt;- energyIsInfinite: Boolean&lt;br/&gt;- gootenTradeList: List&amp;lt;Trade&amp;gt;&lt;br/&gt;- id: Integer&lt;br/&gt;- abilities: Map&amp;lt;Ability, Integer&amp;gt;&lt;br/&gt;- couple: Player&lt;br/&gt;- energy: Integer&lt;br/&gt;- maxEnergy: Integer&lt;br/&gt;- inventory: BackPack&lt;br/&gt;- account: Account&lt;br/&gt;- shippingBinList: List&amp;lt;ShippingBin&amp;gt;&lt;br/&gt;- isFainted: Boolean&lt;br/&gt;- marridge: List&amp;lt;Marry&amp;gt;&lt;br/&gt;- energyPerTurn: Integer&lt;/p&gt;&lt;hr size=&quot;1&quot;/&gt;&lt;p style=&quot;margin:0 0 0 4px;line-height:1.6;&quot;&gt;+ getUser(): User&lt;br/&gt;+ getId(): Integer&lt;br/&gt;+ toString(): String&lt;br/&gt;+ setCouple(Player): void&lt;br/&gt;+ setEnergy(Integer): void&lt;br/&gt;+ setInventory(BackPack): void&lt;br/&gt;+ getEnergy(): Integer&lt;br/&gt;+ getMarridge(): List&amp;lt;Marry&amp;gt;&lt;br/&gt;+ setId(Integer): void&lt;br/&gt;+ setIsFainted(Boolean): void&lt;br/&gt;+ getMaxEnergy(): Integer&lt;br/&gt;+ setAbilities(Map&amp;lt;Ability, Integer&amp;gt;): void&lt;br/&gt;+ setGootenTradeList(List&amp;lt;Trade&amp;gt;): void&lt;br/&gt;+ getEnergyPerTurn(): Integer&lt;br/&gt;+ getAccount(): Account&lt;br/&gt;+ setMaxEnergy(Integer): void&lt;br/&gt;+ getIsFainted(): Boolean&lt;br/&gt;+ getEnergyIsInfinite(): Boolean&lt;br/&gt;+ getInventory(): BackPack&lt;br/&gt;+ getBuff(): Buff&lt;br/&gt;+ getShippingBinList(): List&amp;lt;ShippingBin&amp;gt;&lt;br/&gt;+ setUser(User): void&lt;br/&gt;+ setEnergyPerTurn(Integer): void&lt;br/&gt;+ setShippingBinList(List&amp;lt;ShippingBin&amp;gt;): void&lt;br/&gt;+ setEnergyIsInfinite(Boolean): void&lt;br/&gt;+ getCouple(): Player&lt;br/&gt;+ setMarridge(List&amp;lt;Marry&amp;gt;): void&lt;br/&gt;+ getGootenTradeList(): List&amp;lt;Trade&amp;gt;&lt;br/&gt;+ getAbilities(): Map&amp;lt;Ability, Integer&amp;gt;&lt;br/&gt;+ setAccount(Account): void&lt;br/&gt;+ setBuff(Buff): void&lt;br/&gt;+ resetEnergy(): void&lt;br/&gt;+ faint(): void&lt;br/&gt;+ changeEnergy(int): void&lt;/p&gt;" style="verticalAlign=top;align=left;overflow=fill;fontSize=14;fontFamily=Helvetica;html=1;rounded=0;shadow=0;comic=0;labelBackgroundColor=none;strokeWidth=1;">
      <mxGeometry x="7711" y="2227" width="393" height="1520" as="geometry" />
    </mxCell>
    <mxCell id="node88" parent="1" vertex="1" value="&lt;p style=&quot;margin:0px;margin-top:4px;text-align:center;&quot;&gt;&lt;i&gt;&amp;lt;&amp;lt;interface&amp;gt;&amp;gt;&lt;/i&gt;&lt;br/&gt;&lt;b&gt;Product&lt;/b&gt;&lt;/p&gt;&lt;hr size=&quot;1&quot;/&gt;" style="verticalAlign=top;align=left;overflow=fill;fontSize=14;fontFamily=Helvetica;html=1;rounded=0;shadow=0;comic=0;labelBackgroundColor=none;strokeWidth=1;">
      <mxGeometry x="1563" y="1795" width="137" height="44" as="geometry" />
    </mxCell>
    <mxCell id="node64" parent="1" vertex="1" value="&lt;p style=&quot;margin:0px;margin-top:4px;text-align:center;&quot;&gt;&lt;b&gt;ProfileController&lt;/b&gt;&lt;/p&gt;&lt;hr size=&quot;1&quot;/&gt;" style="verticalAlign=top;align=left;overflow=fill;fontSize=14;fontFamily=Helvetica;html=1;rounded=0;shadow=0;comic=0;labelBackgroundColor=none;strokeWidth=1;">
      <mxGeometry x="7607" y="1236" width="218" height="38" as="geometry" />
    </mxCell>
    <mxCell id="node40" parent="1" vertex="1" value="&lt;p style=&quot;margin:0px;margin-top:4px;text-align:center;&quot;&gt;&lt;b&gt;ProfileMenu&lt;/b&gt;&lt;/p&gt;&lt;hr size=&quot;1&quot;/&gt;" style="verticalAlign=top;align=left;overflow=fill;fontSize=14;fontFamily=Helvetica;html=1;rounded=0;shadow=0;comic=0;labelBackgroundColor=none;strokeWidth=1;">
      <mxGeometry x="615" y="1533" width="178" height="38" as="geometry" />
    </mxCell>
    <mxCell id="node0" parent="1" vertex="1" value="&lt;p style=&quot;margin:0px;margin-top:4px;text-align:center;&quot;&gt;&lt;b&gt;Quarry&lt;/b&gt;&lt;/p&gt;&lt;hr size=&quot;1&quot;/&gt;" style="verticalAlign=top;align=left;overflow=fill;fontSize=14;fontFamily=Helvetica;html=1;rounded=0;shadow=0;comic=0;labelBackgroundColor=none;strokeWidth=1;">
      <mxGeometry x="6684" y="2535" width="126" height="38" as="geometry" />
    </mxCell>
    <mxCell id="node54" parent="1" vertex="1" value="&lt;p style=&quot;margin:0px;margin-top:4px;text-align:center;&quot;&gt;&lt;b&gt;Recipe&lt;/b&gt;&lt;/p&gt;&lt;hr size=&quot;1&quot;/&gt;&lt;p style=&quot;margin:0 0 0 4px;line-height:1.6;&quot;&gt;- price: Integer&lt;br/&gt;- dailyLimit: Integer&lt;br/&gt;- id: Integer&lt;br/&gt;- description: String&lt;/p&gt;&lt;hr size=&quot;1&quot;/&gt;&lt;p style=&quot;margin:0 0 0 4px;line-height:1.6;&quot;&gt;+ getId(): Integer&lt;br/&gt;+ getDescription(): String&lt;br/&gt;+ getPrice(): Integer&lt;br/&gt;+ getDailyLimit(): Integer&lt;br/&gt;+ setId(Integer): void&lt;br/&gt;+ setDescription(String): void&lt;br/&gt;+ setPrice(Integer): void&lt;br/&gt;+ setDailyLimit(Integer): void&lt;br/&gt;+ toString(): String&lt;br/&gt;+ addCookingRecipe(): void&lt;br/&gt;+ addCraftingRecipe(): void&lt;/p&gt;" style="verticalAlign=top;align=left;overflow=fill;fontSize=14;fontFamily=Helvetica;html=1;rounded=0;shadow=0;comic=0;labelBackgroundColor=none;strokeWidth=1;">
      <mxGeometry x="3125" y="-3" width="269" height="500" as="geometry" />
    </mxCell>
    <mxCell id="node76" parent="1" vertex="1" value="&lt;p style=&quot;margin:0px;margin-top:4px;text-align:center;&quot;&gt;&lt;i&gt;&amp;lt;&amp;lt;interface&amp;gt;&amp;gt;&lt;/i&gt;&lt;br/&gt;&lt;b&gt;Salable&lt;/b&gt;&lt;/p&gt;&lt;hr size=&quot;1&quot;/&gt;" style="verticalAlign=top;align=left;overflow=fill;fontSize=14;fontFamily=Helvetica;html=1;rounded=0;shadow=0;comic=0;labelBackgroundColor=none;strokeWidth=1;">
      <mxGeometry x="3602" y="689" width="132" height="44" as="geometry" />
    </mxCell>
    <mxCell id="node2" parent="1" vertex="1" value="&lt;p style=&quot;margin:0px;margin-top:4px;text-align:center;&quot;&gt;&lt;b&gt;Scythe&lt;/b&gt;&lt;/p&gt;&lt;hr size=&quot;1&quot;/&gt;&lt;p style=&quot;margin:0 0 0 4px;line-height:1.6;&quot;&gt;- energyUse: Integer&lt;/p&gt;&lt;hr size=&quot;1&quot;/&gt;&lt;p style=&quot;margin:0 0 0 4px;line-height:1.6;&quot;&gt;+ getEnergyUse(): Integer&lt;/p&gt;" style="verticalAlign=top;align=left;overflow=fill;fontSize=14;fontFamily=Helvetica;html=1;rounded=0;shadow=0;comic=0;labelBackgroundColor=none;strokeWidth=1;">
      <mxGeometry x="2390" y="1473" width="244" height="119" as="geometry" />
    </mxCell>
    <mxCell id="node16" parent="1" vertex="1" value="&lt;p style=&quot;margin:0px;margin-top:4px;text-align:center;&quot;&gt;&lt;i&gt;&amp;lt;&amp;lt;enumeration&amp;gt;&amp;gt;&lt;/i&gt;&lt;br/&gt;&lt;b&gt;Season&lt;/b&gt;&lt;/p&gt;&lt;hr size=&quot;1&quot;/&gt;&lt;p style=&quot;margin:0 0 0 4px;line-height:1.6;&quot;&gt;+ WINTER: &lt;br/&gt;+ SPRING: &lt;br/&gt;+ SUMMER: &lt;br/&gt;+ FALL: &lt;br/&gt;+ SPECIAL: &lt;/p&gt;&lt;hr size=&quot;1&quot;/&gt;&lt;p style=&quot;margin:0 0 0 4px;line-height:1.6;&quot;&gt;+ toString(): String&lt;br/&gt;+ values(): Season[]&lt;br/&gt;+ valueOf(String): Season&lt;/p&gt;" style="verticalAlign=top;align=left;overflow=fill;fontSize=14;fontFamily=Helvetica;html=1;rounded=0;shadow=0;comic=0;labelBackgroundColor=none;strokeWidth=1;">
      <mxGeometry x="1767" y="1719" width="241" height="290" as="geometry" />
    </mxCell>
    <mxCell id="node102" parent="1" vertex="1" value="&lt;p style=&quot;margin:0px;margin-top:4px;text-align:center;&quot;&gt;&lt;b&gt;Seed&lt;/b&gt;&lt;/p&gt;&lt;hr size=&quot;1&quot;/&gt;&lt;p style=&quot;margin:0 0 0 4px;line-height:1.6;&quot;&gt;- seedType: SeedType&lt;/p&gt;" style="verticalAlign=top;align=left;overflow=fill;fontSize=14;fontFamily=Helvetica;html=1;rounded=0;shadow=0;comic=0;labelBackgroundColor=none;strokeWidth=1;">
      <mxGeometry x="5510" y="2676" width="218" height="82" as="geometry" />
    </mxCell>
    <mxCell id="node82" parent="1" vertex="1" value="&lt;p style=&quot;margin:0px;margin-top:4px;text-align:center;&quot;&gt;&lt;i&gt;&amp;lt;&amp;lt;enumeration&amp;gt;&amp;gt;&lt;/i&gt;&lt;br/&gt;&lt;b&gt;SeedType&lt;/b&gt;&lt;/p&gt;&lt;hr size=&quot;1&quot;/&gt;&lt;p style=&quot;margin:0 0 0 4px;line-height:1.6;&quot;&gt;+ POPPY_SEEDS: &lt;br/&gt;+ RADISH_SEEDS: &lt;br/&gt;+ CRANBERRY_SEEDS: &lt;br/&gt;+ YAM_SEEDS: &lt;br/&gt;+ RICE_SHOOT: &lt;br/&gt;+ BLUEBERRY_SEEDS: &lt;br/&gt;+ GARLIC_SEEDS: &lt;br/&gt;+ TOMATO_SEEDS: &lt;br/&gt;+ POWDERMELON_SEEDS: &lt;br/&gt;+ MELON_SEEDS: &lt;br/&gt;+ WHEAT_SEEDS: &lt;br/&gt;+ STRAWBERRY_SEEDS: &lt;br/&gt;- season: Season&lt;br/&gt;+ SUMMER_SQUASH_SEEDS: &lt;br/&gt;+ JAZZ_SEEDS: &lt;br/&gt;- isForaging: boolean&lt;br/&gt;+ CARROT_SEEDS: &lt;br/&gt;+ PARSNIP_SEEDS: &lt;br/&gt;+ TULIP_BULB: &lt;br/&gt;- name: String&lt;br/&gt;+ HOPS_STARTER: &lt;br/&gt;+ SPANGLE_SEEDS: &lt;br/&gt;+ RED_CABBAGE_SEEDS: &lt;br/&gt;+ STARFRUIT_SEEDS: &lt;br/&gt;+ KALE_SEEDS: &lt;br/&gt;+ SUNFLOWER_SEEDS: &lt;br/&gt;+ FAIRY_SEEDS: &lt;br/&gt;+ GRAPE_STARTER: &lt;br/&gt;+ ARTICHOKE_SEEDS: &lt;br/&gt;+ BROCCOLI_SEEDS: &lt;br/&gt;+ RARE_SEED: &lt;br/&gt;+ BOK_CHOY_SEEDS: &lt;br/&gt;+ BEAN_STARTER: &lt;br/&gt;+ PUMPKIN_SEEDS: &lt;br/&gt;+ POTATO_SEEDS: &lt;br/&gt;+ EGGPLANT_SEEDS: &lt;br/&gt;+ MIXED_SEEDS: &lt;br/&gt;+ CAULIFLOWER_SEEDS: &lt;br/&gt;+ ANCIENT_SEEDS: &lt;br/&gt;+ BEET_SEEDS: &lt;br/&gt;+ COFFEE_BEAN: &lt;br/&gt;+ RHUBARB_SEEDS: &lt;br/&gt;+ CORN_SEEDS: &lt;br/&gt;+ PEPPER_SEEDS: &lt;br/&gt;+ AMARANTH_SEEDS: &lt;/p&gt;&lt;hr size=&quot;1&quot;/&gt;&lt;p style=&quot;margin:0 0 0 4px;line-height:1.6;&quot;&gt;+ values(): SeedType[]&lt;br/&gt;+ valueOf(String): SeedType&lt;/p&gt;" style="verticalAlign=top;align=left;overflow=fill;fontSize=14;fontFamily=Helvetica;html=1;rounded=0;shadow=0;comic=0;labelBackgroundColor=none;strokeWidth=1;">
      <mxGeometry x="4109" y="1272" width="270" height="1460" as="geometry" />
    </mxCell>
    <mxCell id="node37" parent="1" vertex="1" value="&lt;p style=&quot;margin:0px;margin-top:4px;text-align:center;&quot;&gt;&lt;b&gt;Session&lt;/b&gt;&lt;/p&gt;&lt;hr size=&quot;1&quot;/&gt;" style="verticalAlign=top;align=left;overflow=fill;fontSize=14;fontFamily=Helvetica;html=1;rounded=0;shadow=0;comic=0;labelBackgroundColor=none;strokeWidth=1;">
      <mxGeometry x="5584" y="2148" width="137" height="38" as="geometry" />
    </mxCell>
    <mxCell id="node56" parent="1" vertex="1" value="&lt;p style=&quot;margin:0px;margin-top:4px;text-align:center;&quot;&gt;&lt;i&gt;&amp;lt;&amp;lt;enumeration&amp;gt;&amp;gt;&lt;/i&gt;&lt;br/&gt;&lt;b&gt;Shear&lt;/b&gt;&lt;/p&gt;&lt;hr size=&quot;1&quot;/&gt;&lt;p style=&quot;margin:0 0 0 4px;line-height:1.6;&quot;&gt;- energyUse: Integer&lt;br/&gt;+ SHEAR: &lt;br/&gt;- price: Integer&lt;/p&gt;&lt;hr size=&quot;1&quot;/&gt;&lt;p style=&quot;margin:0 0 0 4px;line-height:1.6;&quot;&gt;+ getPrice(): Integer&lt;br/&gt;+ values(): Shear[]&lt;br/&gt;+ valueOf(String): Shear&lt;br/&gt;+ getEnergyUse(): Integer&lt;/p&gt;" style="verticalAlign=top;align=left;overflow=fill;fontSize=14;fontFamily=Helvetica;html=1;rounded=0;shadow=0;comic=0;labelBackgroundColor=none;strokeWidth=1;">
      <mxGeometry x="1751" y="2127" width="244" height="260" as="geometry" />
    </mxCell>
    <mxCell id="node21" parent="1" vertex="1" value="&lt;p style=&quot;margin:0px;margin-top:4px;text-align:center;&quot;&gt;&lt;b&gt;Shelter&lt;/b&gt;&lt;/p&gt;&lt;hr size=&quot;1&quot;/&gt;" style="verticalAlign=top;align=left;overflow=fill;fontSize=14;fontFamily=Helvetica;html=1;rounded=0;shadow=0;comic=0;labelBackgroundColor=none;strokeWidth=1;">
      <mxGeometry x="6539" y="2683" width="131" height="38" as="geometry" />
    </mxCell>
    <mxCell id="node68" parent="1" vertex="1" value="&lt;p style=&quot;margin:0px;margin-top:4px;text-align:center;&quot;&gt;&lt;i&gt;&amp;lt;&amp;lt;enumeration&amp;gt;&amp;gt;&lt;/i&gt;&lt;br/&gt;&lt;b&gt;ShelterType&lt;/b&gt;&lt;/p&gt;&lt;hr size=&quot;1&quot;/&gt;&lt;p style=&quot;margin:0 0 0 4px;line-height:1.6;&quot;&gt;+ BIG_BARN: &lt;br/&gt;+ DELUXE_COOP: &lt;br/&gt;+ DELUXE_BARN: &lt;br/&gt;- width: Integer&lt;br/&gt;+ BIG_COOP: &lt;br/&gt;- height: Integer&lt;br/&gt;+ COOP: &lt;br/&gt;+ BARN: &lt;br/&gt;- capacity: Integer&lt;/p&gt;&lt;hr size=&quot;1&quot;/&gt;&lt;p style=&quot;margin:0 0 0 4px;line-height:1.6;&quot;&gt;+ valueOf(String): ShelterType&lt;br/&gt;+ values(): ShelterType[]&lt;/p&gt;" style="verticalAlign=top;align=left;overflow=fill;fontSize=14;fontFamily=Helvetica;html=1;rounded=0;shadow=0;comic=0;labelBackgroundColor=none;strokeWidth=1;">
      <mxGeometry x="701" y="2742" width="276" height="380" as="geometry" />
    </mxCell>
    <mxCell id="node105" parent="1" vertex="1" value="&lt;p style=&quot;margin:0px;margin-top:4px;text-align:center;&quot;&gt;&lt;b&gt;ShippingBin&lt;/b&gt;&lt;/p&gt;&lt;hr size=&quot;1&quot;/&gt;&lt;p style=&quot;margin:0 0 0 4px;line-height:1.6;&quot;&gt;- salables: List&amp;lt;Salable&amp;gt;&lt;/p&gt;&lt;hr size=&quot;1&quot;/&gt;&lt;p style=&quot;margin:0 0 0 4px;line-height:1.6;&quot;&gt;+ getSalables(): List&amp;lt;Salable&amp;gt;&lt;br/&gt;+ setSalables(List&amp;lt;Salable&amp;gt;): void&lt;br/&gt;+ toString(): String&lt;/p&gt;" style="verticalAlign=top;align=left;overflow=fill;fontSize=14;fontFamily=Helvetica;html=1;rounded=0;shadow=0;comic=0;labelBackgroundColor=none;strokeWidth=1;">
      <mxGeometry x="7549" y="1526" width="306" height="170" as="geometry" />
    </mxCell>
    <mxCell id="node17" parent="1" vertex="1" value="&lt;p style=&quot;margin:0px;margin-top:4px;text-align:center;&quot;&gt;&lt;i&gt;&amp;lt;&amp;lt;interface&amp;gt;&amp;gt;&lt;/i&gt;&lt;br/&gt;&lt;b&gt;Source&lt;/b&gt;&lt;/p&gt;&lt;hr size=&quot;1&quot;/&gt;" style="verticalAlign=top;align=left;overflow=fill;fontSize=14;fontFamily=Helvetica;html=1;rounded=0;shadow=0;comic=0;labelBackgroundColor=none;strokeWidth=1;">
      <mxGeometry x="2394" y="1323" width="130" height="44" as="geometry" />
    </mxCell>
    <mxCell id="node30" parent="1" vertex="1" value="&lt;p style=&quot;margin:0px;margin-top:4px;text-align:center;&quot;&gt;&lt;b&gt;Stone&lt;/b&gt;&lt;/p&gt;&lt;hr size=&quot;1&quot;/&gt;" style="verticalAlign=top;align=left;overflow=fill;fontSize=14;fontFamily=Helvetica;html=1;rounded=0;shadow=0;comic=0;labelBackgroundColor=none;strokeWidth=1;">
      <mxGeometry x="6906" y="2237" width="119" height="38" as="geometry" />
    </mxCell>
    <mxCell id="node24" parent="1" vertex="1" value="&lt;p style=&quot;margin:0px;margin-top:4px;text-align:center;&quot;&gt;&lt;b&gt;Store&lt;/b&gt;&lt;/p&gt;&lt;hr size=&quot;1&quot;/&gt;&lt;p style=&quot;margin:0 0 0 4px;line-height:1.6;&quot;&gt;- storeType: StoreType&lt;/p&gt;&lt;hr size=&quot;1&quot;/&gt;&lt;p style=&quot;margin:0 0 0 4px;line-height:1.6;&quot;&gt;+ getStoreType(): StoreType&lt;br/&gt;+ setStoreType(StoreType): void&lt;br/&gt;+ toString(): String&lt;/p&gt;" style="verticalAlign=top;align=left;overflow=fill;fontSize=14;fontFamily=Helvetica;html=1;rounded=0;shadow=0;comic=0;labelBackgroundColor=none;strokeWidth=1;">
      <mxGeometry x="5716" y="2430" width="295" height="170" as="geometry" />
    </mxCell>
    <mxCell id="node87" parent="1" vertex="1" value="&lt;p style=&quot;margin:0px;margin-top:4px;text-align:center;&quot;&gt;&lt;b&gt;StoreMenu&lt;/b&gt;&lt;/p&gt;&lt;hr size=&quot;1&quot;/&gt;" style="verticalAlign=top;align=left;overflow=fill;fontSize=14;fontFamily=Helvetica;html=1;rounded=0;shadow=0;comic=0;labelBackgroundColor=none;strokeWidth=1;">
      <mxGeometry x="1768" y="2477" width="168" height="38" as="geometry" />
    </mxCell>
    <mxCell id="node61" parent="1" vertex="1" value="&lt;p style=&quot;margin:0px;margin-top:4px;text-align:center;&quot;&gt;&lt;i&gt;&amp;lt;&amp;lt;enumeration&amp;gt;&amp;gt;&lt;/i&gt;&lt;br/&gt;&lt;b&gt;StoreType&lt;/b&gt;&lt;/p&gt;&lt;hr size=&quot;1&quot;/&gt;&lt;p style=&quot;margin:0 0 0 4px;line-height:1.6;&quot;&gt;+ BLACK_SMITH: &lt;br/&gt;+ JOJA_MART: &lt;br/&gt;# closeDoorTime: Integer&lt;br/&gt;+ PIERRE_SHOP: &lt;br/&gt;# openDoorTime: Integer&lt;br/&gt;+ CARPENTER_SHOP: &lt;br/&gt;+ FISH_SHOP: &lt;br/&gt;+ STARDROPSALON: &lt;br/&gt;+ MARNIE_SHOP: &lt;br/&gt;# shopperName: String&lt;/p&gt;&lt;hr size=&quot;1&quot;/&gt;&lt;p style=&quot;margin:0 0 0 4px;line-height:1.6;&quot;&gt;+ values(): StoreType[]&lt;br/&gt;+ valueOf(String): StoreType&lt;/p&gt;" style="verticalAlign=top;align=left;overflow=fill;fontSize=14;fontFamily=Helvetica;html=1;rounded=0;shadow=0;comic=0;labelBackgroundColor=none;strokeWidth=1;">
      <mxGeometry x="7403" y="1757" width="263" height="410" as="geometry" />
    </mxCell>
    <mxCell id="node39" parent="1" vertex="1" value="&lt;p style=&quot;margin:0px;margin-top:4px;text-align:center;&quot;&gt;&lt;i&gt;&amp;lt;&amp;lt;interface&amp;gt;&amp;gt;&lt;/i&gt;&lt;br/&gt;&lt;b&gt;Structure&lt;/b&gt;&lt;/p&gt;&lt;hr size=&quot;1&quot;/&gt;&lt;p style=&quot;margin:0 0 0 4px;line-height:1.6;&quot;&gt;+ id: Integer&lt;br/&gt;+ tiles: List&amp;lt;Tile&amp;gt;&lt;/p&gt;" style="verticalAlign=top;align=left;overflow=fill;fontSize=14;fontFamily=Helvetica;html=1;rounded=0;shadow=0;comic=0;labelBackgroundColor=none;strokeWidth=1;">
      <mxGeometry x="4716" y="1965" width="177" height="133" as="geometry" />
    </mxCell>
    <mxCell id="node44" parent="1" vertex="1" value="&lt;p style=&quot;margin:0px;margin-top:4px;text-align:center;&quot;&gt;&lt;b&gt;Tile&lt;/b&gt;&lt;/p&gt;&lt;hr size=&quot;1&quot;/&gt;&lt;p style=&quot;margin:0 0 0 4px;line-height:1.6;&quot;&gt;- id: Integer&lt;br/&gt;- y: Integer&lt;br/&gt;- x: Integer&lt;br/&gt;- isPassable: Boolean&lt;br/&gt;- isFilled: Boolean&lt;br/&gt;- tileType: TileType&lt;/p&gt;&lt;hr size=&quot;1&quot;/&gt;&lt;p style=&quot;margin:0 0 0 4px;line-height:1.6;&quot;&gt;+ getX(): Integer&lt;br/&gt;+ getId(): Integer&lt;br/&gt;+ toString(): String&lt;br/&gt;+ setTileType(TileType): void&lt;br/&gt;+ getY(): Integer&lt;br/&gt;+ getIsFilled(): Boolean&lt;br/&gt;+ getIsPassable(): Boolean&lt;br/&gt;+ getTileType(): TileType&lt;br/&gt;+ setId(Integer): void&lt;br/&gt;+ setX(Integer): void&lt;br/&gt;+ setY(Integer): void&lt;br/&gt;+ setIsFilled(Boolean): void&lt;br/&gt;+ setIsPassable(Boolean): void&lt;/p&gt;" style="verticalAlign=top;align=left;overflow=fill;fontSize=14;fontFamily=Helvetica;html=1;rounded=0;shadow=0;comic=0;labelBackgroundColor=none;strokeWidth=1;">
      <mxGeometry x="6575" y="1242" width="277" height="620" as="geometry" />
    </mxCell>
    <mxCell id="node73" parent="1" vertex="1" value="&lt;p style=&quot;margin:0px;margin-top:4px;text-align:center;&quot;&gt;&lt;i&gt;&amp;lt;&amp;lt;enumeration&amp;gt;&amp;gt;&lt;/i&gt;&lt;br/&gt;&lt;b&gt;TileType&lt;/b&gt;&lt;/p&gt;&lt;hr size=&quot;1&quot;/&gt;&lt;p style=&quot;margin:0 0 0 4px;line-height:1.6;&quot;&gt;+ LAKE: &lt;br/&gt;+ FLOWER: &lt;br/&gt;+ SNOW: &lt;br/&gt;+ GRASS: &lt;br/&gt;+ MUD: &lt;/p&gt;&lt;hr size=&quot;1&quot;/&gt;&lt;p style=&quot;margin:0 0 0 4px;line-height:1.6;&quot;&gt;+ values(): TileType[]&lt;br/&gt;+ valueOf(String): TileType&lt;/p&gt;" style="verticalAlign=top;align=left;overflow=fill;fontSize=14;fontFamily=Helvetica;html=1;rounded=0;shadow=0;comic=0;labelBackgroundColor=none;strokeWidth=1;">
      <mxGeometry x="3226" y="558" width="249" height="260" as="geometry" />
    </mxCell>
    <mxCell id="node85" parent="1" vertex="1" value="&lt;p style=&quot;margin:0px;margin-top:4px;text-align:center;&quot;&gt;&lt;b&gt;TimeAndDate&lt;/b&gt;&lt;/p&gt;&lt;hr size=&quot;1&quot;/&gt;&lt;p style=&quot;margin:0 0 0 4px;line-height:1.6;&quot;&gt;- season: Season&lt;br/&gt;- minute: Integer&lt;br/&gt;- hour: Integer&lt;br/&gt;- day: Integer&lt;/p&gt;&lt;hr size=&quot;1&quot;/&gt;&lt;p style=&quot;margin:0 0 0 4px;line-height:1.6;&quot;&gt;+ getHour(): Integer&lt;br/&gt;+ getMinute(): Integer&lt;br/&gt;+ getSeason(): Season&lt;br/&gt;+ getDay(): Integer&lt;br/&gt;+ setHour(Integer): void&lt;br/&gt;+ setMinute(Integer): void&lt;br/&gt;+ setSeason(Season): void&lt;br/&gt;+ setDay(Integer): void&lt;br/&gt;+ toString(): String&lt;br/&gt;+ moveTimeForward(TimeAndDate): void&lt;/p&gt;" style="verticalAlign=top;align=left;overflow=fill;fontSize=14;fontFamily=Helvetica;html=1;rounded=0;shadow=0;comic=0;labelBackgroundColor=none;strokeWidth=1;">
      <mxGeometry x="2699" y="2774" width="360" height="470" as="geometry" />
    </mxCell>
    <mxCell id="node11" parent="1" vertex="1" value="&lt;p style=&quot;margin:0px;margin-top:4px;text-align:center;&quot;&gt;&lt;i&gt;&amp;lt;&amp;lt;interface&amp;gt;&amp;gt;&lt;/i&gt;&lt;br/&gt;&lt;b&gt;Tool&lt;/b&gt;&lt;/p&gt;&lt;hr size=&quot;1&quot;/&gt;&lt;p style=&quot;margin:0 0 0 4px;line-height:1.6;&quot;&gt;+ addToolEfficiency(double): void&lt;/p&gt;" style="verticalAlign=top;align=left;overflow=fill;fontSize=14;fontFamily=Helvetica;html=1;rounded=0;shadow=0;comic=0;labelBackgroundColor=none;strokeWidth=1;">
      <mxGeometry x="253" y="1742" width="305" height="95" as="geometry" />
    </mxCell>
    <mxCell id="node86" parent="1" vertex="1" value="&lt;p style=&quot;margin:0px;margin-top:4px;text-align:center;&quot;&gt;&lt;b&gt;Trade&lt;/b&gt;&lt;/p&gt;&lt;hr size=&quot;1&quot;/&gt;&lt;p style=&quot;margin:0 0 0 4px;line-height:1.6;&quot;&gt;- requieredSalable: Salable&lt;br/&gt;- id: Integer&lt;br/&gt;- customer: Player&lt;br/&gt;- salable: Salable&lt;br/&gt;- isAccepted: Boolean&lt;br/&gt;- quantityRequired: Integer&lt;br/&gt;- trader: Player&lt;br/&gt;- quantity: Integer&lt;br/&gt;- price: Integer&lt;/p&gt;&lt;hr size=&quot;1&quot;/&gt;&lt;p style=&quot;margin:0 0 0 4px;line-height:1.6;&quot;&gt;+ getPrice(): Integer&lt;br/&gt;+ getId(): Integer&lt;br/&gt;+ getCustomer(): Player&lt;br/&gt;+ setRequieredSalable(Salable): void&lt;br/&gt;+ setQuantityRequired(Integer): void&lt;br/&gt;+ setPrice(Integer): void&lt;br/&gt;+ setSalable(Salable): void&lt;br/&gt;+ getTrader(): Player&lt;br/&gt;+ setQuantity(Integer): void&lt;br/&gt;+ toString(): String&lt;br/&gt;+ getSalable(): Salable&lt;br/&gt;+ getQuantity(): Integer&lt;br/&gt;+ getRequieredSalable(): Salable&lt;br/&gt;+ getQuantityRequired(): Integer&lt;br/&gt;+ setTrader(Player): void&lt;br/&gt;+ setIsAccepted(Boolean): void&lt;br/&gt;+ getIsAccepted(): Boolean&lt;br/&gt;+ setCustomer(Player): void&lt;br/&gt;+ setId(Integer): void&lt;br/&gt;+ createTrade(): void&lt;br/&gt;+ acceptTrade(): void&lt;br/&gt;+ rejectTrade(): void&lt;/p&gt;" style="verticalAlign=top;align=left;overflow=fill;fontSize=14;fontFamily=Helvetica;html=1;rounded=0;shadow=0;comic=0;labelBackgroundColor=none;strokeWidth=1;">
      <mxGeometry x="2735" y="1191" width="323" height="980" as="geometry" />
    </mxCell>
    <mxCell id="node18" parent="1" vertex="1" value="&lt;p style=&quot;margin:0px;margin-top:4px;text-align:center;&quot;&gt;&lt;b&gt;TradeMenu&lt;/b&gt;&lt;/p&gt;&lt;hr size=&quot;1&quot;/&gt;" style="verticalAlign=top;align=left;overflow=fill;fontSize=14;fontFamily=Helvetica;html=1;rounded=0;shadow=0;comic=0;labelBackgroundColor=none;strokeWidth=1;">
      <mxGeometry x="4326" y="3234" width="172" height="38" as="geometry" />
    </mxCell>
    <mxCell id="node12" parent="1" vertex="1" value="&lt;p style=&quot;margin:0px;margin-top:4px;text-align:center;&quot;&gt;&lt;i&gt;&amp;lt;&amp;lt;enumeration&amp;gt;&amp;gt;&lt;/i&gt;&lt;br/&gt;&lt;b&gt;TrashCan&lt;/b&gt;&lt;/p&gt;&lt;hr size=&quot;1&quot;/&gt;&lt;p style=&quot;margin:0 0 0 4px;line-height:1.6;&quot;&gt;+ IRON: &lt;br/&gt;+ GOLD: &lt;br/&gt;- rerunedValue: Integer&lt;br/&gt;+ CUPPER: &lt;br/&gt;+ NORMAL: &lt;br/&gt;+ IRIDIUM: &lt;/p&gt;&lt;hr size=&quot;1&quot;/&gt;&lt;p style=&quot;margin:0 0 0 4px;line-height:1.6;&quot;&gt;+ addSalableToTrashCan(Product): void&lt;br/&gt;+ valueOf(String): TrashCan&lt;br/&gt;+ getRerunedValue(): int&lt;br/&gt;+ values(): TrashCan[]&lt;/p&gt;" style="verticalAlign=top;align=left;overflow=fill;fontSize=14;fontFamily=Helvetica;html=1;rounded=0;shadow=0;comic=0;labelBackgroundColor=none;strokeWidth=1;">
      <mxGeometry x="-152" y="2040" width="353" height="350" as="geometry" />
    </mxCell>
    <mxCell id="node100" parent="1" vertex="1" value="&lt;p style=&quot;margin:0px;margin-top:4px;text-align:center;&quot;&gt;&lt;b&gt;Tree&lt;/b&gt;&lt;/p&gt;&lt;hr size=&quot;1&quot;/&gt;&lt;p style=&quot;margin:0 0 0 4px;line-height:1.6;&quot;&gt;~ treeType: TreeType&lt;/p&gt;&lt;hr size=&quot;1&quot;/&gt;&lt;p style=&quot;margin:0 0 0 4px;line-height:1.6;&quot;&gt;+ getTreeType(): TreeType&lt;br/&gt;+ setTreeType(TreeType): void&lt;br/&gt;+ toString(): String&lt;/p&gt;" style="verticalAlign=top;align=left;overflow=fill;fontSize=14;fontFamily=Helvetica;html=1;rounded=0;shadow=0;comic=0;labelBackgroundColor=none;strokeWidth=1;">
      <mxGeometry x="7060" y="1978" width="281" height="170" as="geometry" />
    </mxCell>
    <mxCell id="node50" parent="1" vertex="1" value="&lt;p style=&quot;margin:0px;margin-top:4px;text-align:center;&quot;&gt;&lt;i&gt;&amp;lt;&amp;lt;enumeration&amp;gt;&amp;gt;&lt;/i&gt;&lt;br/&gt;&lt;b&gt;TreeType&lt;/b&gt;&lt;/p&gt;&lt;hr size=&quot;1&quot;/&gt;&lt;p style=&quot;margin:0 0 0 4px;line-height:1.6;&quot;&gt;+ PINE_TREE: &lt;br/&gt;- harvestStages: List&amp;lt;Integer&amp;gt;&lt;br/&gt;+ MUSHROOM_TREE_SEEDS: &lt;br/&gt;+ MUSHROOM_TREE: &lt;br/&gt;+ MAHOGANY_TREE: &lt;br/&gt;- season: Season&lt;br/&gt;+ MANGO_TREE: &lt;br/&gt;+ CHERRY_TREE: &lt;br/&gt;+ PINE_CONES: &lt;br/&gt;+ PEACH_TREE: &lt;br/&gt;- IsForaging: Boolean&lt;br/&gt;- name: String&lt;br/&gt;- fruit: FruitType&lt;br/&gt;+ MYSTIC_TREE: &lt;br/&gt;+ ORANGE_TREE: &lt;br/&gt;+ APPLE_TREE: &lt;br/&gt;- source: Source&lt;br/&gt;+ MAPLE_SEEDS: &lt;br/&gt;+ POMEGRANATE_TREE: &lt;br/&gt;+ ACORNS: &lt;br/&gt;+ BANANA_TREE: &lt;br/&gt;+ MAHOGANY_SEEDS: &lt;br/&gt;+ APRICOT_TREE: &lt;br/&gt;+ OAK_TREE: &lt;br/&gt;+ MAPLE_TREE: &lt;/p&gt;&lt;hr size=&quot;1&quot;/&gt;&lt;p style=&quot;margin:0 0 0 4px;line-height:1.6;&quot;&gt;+ getIsForaging(): Boolean&lt;br/&gt;+ getHarvestStages(): List&amp;lt;Integer&amp;gt;&lt;br/&gt;+ getFruit(): FruitType&lt;br/&gt;+ getSeason(): Season&lt;br/&gt;+ getName(): String&lt;br/&gt;+ getSource(): Source&lt;br/&gt;+ toString(): String&lt;br/&gt;+ values(): TreeType[]&lt;br/&gt;+ valueOf(String): TreeType&lt;/p&gt;" style="verticalAlign=top;align=left;overflow=fill;fontSize=14;fontFamily=Helvetica;html=1;rounded=0;shadow=0;comic=0;labelBackgroundColor=none;strokeWidth=1;">
      <mxGeometry x="1410" y="2630" width="322" height="1070" as="geometry" />
    </mxCell>
    <mxCell id="node95" parent="1" vertex="1" value="&lt;p style=&quot;margin:0px;margin-top:4px;text-align:center;&quot;&gt;&lt;b&gt;User&lt;/b&gt;&lt;/p&gt;&lt;hr size=&quot;1&quot;/&gt;&lt;p style=&quot;margin:0 0 0 4px;line-height:1.6;&quot;&gt;- nickname: String&lt;br/&gt;- username: String&lt;br/&gt;- id: Integer&lt;br/&gt;- password: String&lt;br/&gt;- email: String&lt;/p&gt;&lt;hr size=&quot;1&quot;/&gt;&lt;p style=&quot;margin:0 0 0 4px;line-height:1.6;&quot;&gt;+ getPassword(): String&lt;br/&gt;+ getId(): Integer&lt;br/&gt;+ getUsername(): String&lt;br/&gt;+ getEmail(): String&lt;br/&gt;+ getNickname(): String&lt;br/&gt;+ setId(Integer): void&lt;br/&gt;+ setUsername(String): void&lt;br/&gt;+ setPassword(String): void&lt;br/&gt;+ setEmail(String): void&lt;br/&gt;+ setNickname(String): void&lt;br/&gt;+ toString(): String&lt;/p&gt;" style="verticalAlign=top;align=left;overflow=fill;fontSize=14;fontFamily=Helvetica;html=1;rounded=0;shadow=0;comic=0;labelBackgroundColor=none;strokeWidth=1;">
      <mxGeometry x="3908" y="482" width="258" height="530" as="geometry" />
    </mxCell>
    <mxCell id="node33" parent="1" vertex="1" value="&lt;p style=&quot;margin:0px;margin-top:4px;text-align:center;&quot;&gt;&lt;b&gt;Village&lt;/b&gt;&lt;/p&gt;&lt;hr size=&quot;1&quot;/&gt;&lt;p style=&quot;margin:0 0 0 4px;line-height:1.6;&quot;&gt;- tiles: List&amp;lt;Tile&amp;gt;&lt;br/&gt;- structures: List&amp;lt;Structure&amp;gt;&lt;br/&gt;- farms: List&amp;lt;Farm&amp;gt;&lt;/p&gt;&lt;hr size=&quot;1&quot;/&gt;&lt;p style=&quot;margin:0 0 0 4px;line-height:1.6;&quot;&gt;+ getTiles(): List&amp;lt;Tile&amp;gt;&lt;br/&gt;+ getFarms(): List&amp;lt;Farm&amp;gt;&lt;br/&gt;+ getStructures(): List&amp;lt;Structure&amp;gt;&lt;br/&gt;+ setTiles(List&amp;lt;Tile&amp;gt;): void&lt;br/&gt;+ setFarms(List&amp;lt;Farm&amp;gt;): void&lt;br/&gt;+ setStructures(List&amp;lt;Structure&amp;gt;): void&lt;br/&gt;+ toString(): String&lt;/p&gt;" style="verticalAlign=top;align=left;overflow=fill;fontSize=14;fontFamily=Helvetica;html=1;rounded=0;shadow=0;comic=0;labelBackgroundColor=none;strokeWidth=1;">
      <mxGeometry x="4456" y="1312" width="336" height="350" as="geometry" />
    </mxCell>
    <mxCell id="node69" parent="1" vertex="1" value="&lt;p style=&quot;margin:0px;margin-top:4px;text-align:center;&quot;&gt;&lt;i&gt;&amp;lt;&amp;lt;enumeration&amp;gt;&amp;gt;&lt;/i&gt;&lt;br/&gt;&lt;b&gt;WateringCan&lt;/b&gt;&lt;/p&gt;&lt;hr size=&quot;1&quot;/&gt;&lt;p style=&quot;margin:0 0 0 4px;line-height:1.6;&quot;&gt;+ IRON: &lt;br/&gt;+ NORMAL: &lt;br/&gt;+ CUPPER: &lt;br/&gt;+ GOLD: &lt;br/&gt;+ IRIDIUM: &lt;br/&gt;- capacity: Integer&lt;br/&gt;- level: Integer&lt;br/&gt;- energyUse: Integer&lt;/p&gt;&lt;hr size=&quot;1&quot;/&gt;&lt;p style=&quot;margin:0 0 0 4px;line-height:1.6;&quot;&gt;+ values(): WateringCan[]&lt;br/&gt;+ getLevel(): Integer&lt;br/&gt;+ setCapacity(Integer): void&lt;br/&gt;+ getCapacity(): Integer&lt;br/&gt;+ setLevel(Integer): void&lt;br/&gt;+ getEnergyUse(): Integer&lt;br/&gt;+ setEnergyUse(Integer): void&lt;br/&gt;+ valueOf(String): WateringCan&lt;/p&gt;" style="verticalAlign=top;align=left;overflow=fill;fontSize=14;fontFamily=Helvetica;html=1;rounded=0;shadow=0;comic=0;labelBackgroundColor=none;strokeWidth=1;">
      <mxGeometry x="1051" y="2165" width="284" height="530" as="geometry" />
    </mxCell>
    <mxCell id="node67" parent="1" vertex="1" value="&lt;p style=&quot;margin:0px;margin-top:4px;text-align:center;&quot;&gt;&lt;i&gt;&amp;lt;&amp;lt;enumeration&amp;gt;&amp;gt;&lt;/i&gt;&lt;br/&gt;&lt;b&gt;Weather&lt;/b&gt;&lt;/p&gt;&lt;hr size=&quot;1&quot;/&gt;&lt;p style=&quot;margin:0 0 0 4px;line-height:1.6;&quot;&gt;- seasons: List&amp;lt;Season&amp;gt;&lt;br/&gt;+ RAINY: &lt;br/&gt;+ SUNNY: &lt;br/&gt;+ STORMY: &lt;br/&gt;+ SNOWY: &lt;/p&gt;&lt;hr size=&quot;1&quot;/&gt;&lt;p style=&quot;margin:0 0 0 4px;line-height:1.6;&quot;&gt;+ thunderBolt(Tile[]): void&lt;br/&gt;+ values(): Weather[]&lt;br/&gt;+ valueOf(String): Weather&lt;br/&gt;+ wheaterEffect(): void&lt;/p&gt;" style="verticalAlign=top;align=left;overflow=fill;fontSize=14;fontFamily=Helvetica;html=1;rounded=0;shadow=0;comic=0;labelBackgroundColor=none;strokeWidth=1;">
      <mxGeometry x="2604" y="810" width="248" height="320" as="geometry" />
    </mxCell>
    <mxCell id="node60" parent="1" vertex="1" value="&lt;p style=&quot;margin:0px;margin-top:4px;text-align:center;&quot;&gt;&lt;b&gt;gameMainMenu&lt;/b&gt;&lt;/p&gt;&lt;hr size=&quot;1&quot;/&gt;" style="verticalAlign=top;align=left;overflow=fill;fontSize=14;fontFamily=Helvetica;html=1;rounded=0;shadow=0;comic=0;labelBackgroundColor=none;strokeWidth=1;">
      <mxGeometry x="1648" y="1418" width="215" height="38" as="geometry" />
    </mxCell>
    <mxCell id="edge55" edge="1" value="" parent="1" source="node94" target="node17" style="html=1;rounded=1;edgeStyle=orthogonalEdgeStyle;dashed=1;startArrow=none;endArrow=block;endSize=12;strokeColor=#008200;exitX=0.354;exitY=1.000;exitDx=0;exitDy=0;entryX=1.000;entryY=0.500;entryDx=0;entryDy=0;">
      <mxGeometry width="50" height="50" relative="1" as="geometry">
        <Array as="points">
          <mxPoint x="4522" y="2739" />
          <mxPoint x="4699" y="2739" />
          <mxPoint x="4699" y="2775" />
          <mxPoint x="4092" y="2775" />
          <mxPoint x="4092" y="1297" />
          <mxPoint x="3091" y="1297" />
          <mxPoint x="3091" y="2243" />
          <mxPoint x="2706" y="2243" />
          <mxPoint x="2706" y="1340" />
        </Array>
      </mxGeometry>
    </mxCell>
    <mxCell id="edge61" edge="1" value="" parent="1" source="node52" target="node39" style="html=1;rounded=1;edgeStyle=orthogonalEdgeStyle;dashed=0;startArrow=none;endArrow=block;endSize=12;strokeColor=#008200;exitX=0.500;exitY=0.001;exitDx=0;exitDy=0;entryX=0.613;entryY=0.000;entryDx=0;entryDy=0;">
      <mxGeometry width="50" height="50" relative="1" as="geometry">
        <Array as="points">
          <mxPoint x="7993" y="217" />
          <mxPoint x="4824" y="217" />
        </Array>
      </mxGeometry>
    </mxCell>
    <mxCell id="edge53" edge="1" value="" parent="1" source="node58" target="node88" style="html=1;rounded=1;edgeStyle=orthogonalEdgeStyle;dashed=1;startArrow=none;endArrow=block;endSize=12;strokeColor=#008200;exitX=1.000;exitY=0.500;exitDx=0;exitDy=0;entryX=1.000;entryY=0.500;entryDx=0;entryDy=0;">
      <mxGeometry width="50" height="50" relative="1" as="geometry">
        <Array as="points">
          <mxPoint x="3429" y="4633" />
          <mxPoint x="3429" y="3306" />
          <mxPoint x="1850" y="3306" />
          <mxPoint x="1850" y="2605" />
          <mxPoint x="1717" y="2605" />
          <mxPoint x="1717" y="1813" />
        </Array>
      </mxGeometry>
    </mxCell>
    <mxCell id="edge17" edge="1" value="" parent="1" source="node28" target="node88" style="html=1;rounded=1;edgeStyle=orthogonalEdgeStyle;dashed=1;startArrow=none;endArrow=block;endSize=12;strokeColor=#008200;exitX=0.500;exitY=0.000;exitDx=0;exitDy=0;entryX=1.000;entryY=0.500;entryDx=0;entryDy=0;">
      <mxGeometry width="50" height="50" relative="1" as="geometry">
        <Array as="points">
          <mxPoint x="3687" y="3675" />
          <mxPoint x="3429" y="3675" />
          <mxPoint x="3429" y="3306" />
          <mxPoint x="1850" y="3306" />
          <mxPoint x="1850" y="2605" />
          <mxPoint x="1717" y="2605" />
          <mxPoint x="1717" y="1813" />
        </Array>
      </mxGeometry>
    </mxCell>
    <mxCell id="edge54" edge="1" value="" parent="1" source="node65" target="node76" style="html=1;rounded=1;edgeStyle=orthogonalEdgeStyle;dashed=1;startArrow=none;endArrow=block;endSize=12;strokeColor=#008200;exitX=0.859;exitY=0.000;exitDx=0;exitDy=0;entryX=1.000;entryY=0.500;entryDx=0;entryDy=0;">
      <mxGeometry width="50" height="50" relative="1" as="geometry">
        <Array as="points">
          <mxPoint x="6411" y="1223" />
          <mxPoint x="3873" y="1223" />
          <mxPoint x="3873" y="707" />
        </Array>
      </mxGeometry>
    </mxCell>
    <mxCell id="edge39" edge="1" value="" parent="1" source="node65" target="node39" style="html=1;rounded=1;edgeStyle=orthogonalEdgeStyle;dashed=1;startArrow=none;endArrow=block;endSize=12;strokeColor=#008200;exitX=1.000;exitY=0.500;exitDx=0;exitDy=0;entryX=0.528;entryY=0.000;entryDx=0;entryDy=0;">
      <mxGeometry width="50" height="50" relative="1" as="geometry">
        <Array as="points">
          <mxPoint x="6497" y="2492" />
          <mxPoint x="6497" y="1504" />
          <mxPoint x="5447" y="1504" />
          <mxPoint x="5447" y="465" />
          <mxPoint x="4809" y="465" />
        </Array>
      </mxGeometry>
    </mxCell>
    <mxCell id="edge43" edge="1" value="" parent="1" source="node46" target="node11" style="html=1;rounded=1;edgeStyle=orthogonalEdgeStyle;dashed=1;startArrow=none;endArrow=block;endSize=12;strokeColor=#008200;exitX=0.500;exitY=0.000;exitDx=0;exitDy=0;entryX=0.500;entryY=0.000;entryDx=0;entryDy=0;">
      <mxGeometry width="50" height="50" relative="1" as="geometry">
        <Array as="points">
          <mxPoint x="1580" y="2127" />
          <mxPoint x="1131" y="2127" />
          <mxPoint x="1131" y="1488" />
          <mxPoint x="406" y="1488" />
        </Array>
      </mxGeometry>
    </mxCell>
    <mxCell id="edge13" edge="1" value="" parent="1" source="node104" target="node11" style="html=1;rounded=1;edgeStyle=orthogonalEdgeStyle;dashed=1;startArrow=none;endArrow=block;endSize=12;strokeColor=#008200;exitX=0.000;exitY=0.500;exitDx=0;exitDy=0;entryX=0.500;entryY=0.000;entryDx=0;entryDy=0;">
      <mxGeometry width="50" height="50" relative="1" as="geometry">
        <Array as="points">
          <mxPoint x="2039" y="2373" />
          <mxPoint x="2039" y="1488" />
          <mxPoint x="406" y="1488" />
        </Array>
      </mxGeometry>
    </mxCell>
    <mxCell id="edge33" edge="1" value="" parent="1" source="node70" target="node7" style="html=1;rounded=1;edgeStyle=orthogonalEdgeStyle;dashed=0;startArrow=none;endArrow=block;endSize=12;strokeColor=#000082;exitX=0.500;exitY=0.001;exitDx=0;exitDy=0;entryX=0.587;entryY=0.000;entryDx=0;entryDy=0;">
      <mxGeometry width="50" height="50" relative="1" as="geometry">
        <Array as="points">
          <mxPoint x="1901" y="1282" />
          <mxPoint x="999" y="1282" />
        </Array>
      </mxGeometry>
    </mxCell>
    <mxCell id="edge37" edge="1" value="" parent="1" source="node91" target="node21" style="html=1;rounded=1;edgeStyle=orthogonalEdgeStyle;dashed=0;startArrow=none;endArrow=block;endSize=12;strokeColor=#000082;exitX=0.500;exitY=1.000;exitDx=0;exitDy=0;entryX=1.000;entryY=0.500;entryDx=0;entryDy=0;">
      <mxGeometry width="50" height="50" relative="1" as="geometry">
        <Array as="points">
          <mxPoint x="4609" y="2724" />
          <mxPoint x="4634" y="2724" />
          <mxPoint x="4634" y="4207" />
          <mxPoint x="5889" y="4207" />
          <mxPoint x="5889" y="3549" />
          <mxPoint x="6830" y="3549" />
          <mxPoint x="6830" y="2701" />
        </Array>
      </mxGeometry>
    </mxCell>
    <mxCell id="edge42" edge="1" value="" parent="1" source="node80" target="node88" style="html=1;rounded=1;edgeStyle=orthogonalEdgeStyle;dashed=1;startArrow=none;endArrow=block;endSize=12;strokeColor=#008200;exitX=0.497;exitY=1.000;exitDx=0;exitDy=0;entryX=1.000;entryY=0.500;entryDx=0;entryDy=0;">
      <mxGeometry width="50" height="50" relative="1" as="geometry">
        <Array as="points">
          <mxPoint x="5293" y="3675" />
          <mxPoint x="3429" y="3675" />
          <mxPoint x="3429" y="3306" />
          <mxPoint x="1850" y="3306" />
          <mxPoint x="1850" y="2605" />
          <mxPoint x="1717" y="2605" />
          <mxPoint x="1717" y="1813" />
        </Array>
      </mxGeometry>
    </mxCell>
    <mxCell id="edge52" edge="1" value="" parent="1" source="node80" target="node39" style="html=1;rounded=1;edgeStyle=orthogonalEdgeStyle;dashed=1;startArrow=none;endArrow=block;endSize=12;strokeColor=#008200;exitX=1.000;exitY=0.651;exitDx=0;exitDy=0;entryX=0.528;entryY=0.000;entryDx=0;entryDy=0;">
      <mxGeometry width="50" height="50" relative="1" as="geometry">
        <Array as="points">
          <mxPoint x="6055" y="2618" />
          <mxPoint x="6055" y="2021" />
          <mxPoint x="6497" y="2021" />
          <mxPoint x="6497" y="1504" />
          <mxPoint x="5447" y="1504" />
          <mxPoint x="5447" y="465" />
          <mxPoint x="4809" y="465" />
        </Array>
      </mxGeometry>
    </mxCell>
    <mxCell id="edge30" edge="1" value="" parent="1" source="node51" target="node7" style="html=1;rounded=1;edgeStyle=orthogonalEdgeStyle;dashed=0;startArrow=none;endArrow=block;endSize=12;strokeColor=#000082;exitX=0.257;exitY=0.000;exitDx=0;exitDy=0;entryX=0.587;entryY=0.000;entryDx=0;entryDy=0;">
      <mxGeometry width="50" height="50" relative="1" as="geometry">
        <Array as="points">
          <mxPoint x="880" y="1282" />
          <mxPoint x="999" y="1282" />
        </Array>
      </mxGeometry>
    </mxCell>
    <mxCell id="edge60" edge="1" value="" parent="1" source="node49" target="node55" style="html=1;rounded=1;edgeStyle=orthogonalEdgeStyle;dashed=0;startArrow=none;endArrow=block;endSize=12;strokeColor=#000082;exitX=0.500;exitY=0.001;exitDx=0;exitDy=0;entryX=0.221;entryY=0.000;entryDx=0;entryDy=0;">
      <mxGeometry width="50" height="50" relative="1" as="geometry">
        <Array as="points">
          <mxPoint x="2098" y="2575" />
          <mxPoint x="3097" y="2575" />
        </Array>
      </mxGeometry>
    </mxCell>
    <mxCell id="edge57" edge="1" value="" parent="1" source="node49" target="node17" style="html=1;rounded=1;edgeStyle=orthogonalEdgeStyle;dashed=1;startArrow=none;endArrow=block;endSize=12;strokeColor=#008200;exitX=0.500;exitY=1.000;exitDx=0;exitDy=0;entryX=1.000;entryY=0.500;entryDx=0;entryDy=0;">
      <mxGeometry width="50" height="50" relative="1" as="geometry">
        <Array as="points">
          <mxPoint x="2098" y="4688" />
          <mxPoint x="4699" y="4688" />
          <mxPoint x="4699" y="2775" />
          <mxPoint x="4092" y="2775" />
          <mxPoint x="4092" y="1297" />
          <mxPoint x="3091" y="1297" />
          <mxPoint x="3091" y="2243" />
          <mxPoint x="2706" y="2243" />
          <mxPoint x="2706" y="1340" />
        </Array>
      </mxGeometry>
    </mxCell>
    <mxCell id="edge18" edge="1" value="" parent="1" source="node20" target="node88" style="html=1;rounded=1;edgeStyle=orthogonalEdgeStyle;dashed=1;startArrow=none;endArrow=block;endSize=12;strokeColor=#008200;exitX=1.000;exitY=0.500;exitDx=0;exitDy=0;entryX=1.000;entryY=0.500;entryDx=0;entryDy=0;">
      <mxGeometry width="50" height="50" relative="1" as="geometry">
        <Array as="points">
          <mxPoint x="4070" y="2479" />
          <mxPoint x="4070" y="3675" />
          <mxPoint x="3429" y="3675" />
          <mxPoint x="3429" y="3306" />
          <mxPoint x="1850" y="3306" />
          <mxPoint x="1850" y="2605" />
          <mxPoint x="1717" y="2605" />
          <mxPoint x="1717" y="1813" />
        </Array>
      </mxGeometry>
    </mxCell>
    <mxCell id="edge38" edge="1" value="" parent="1" source="node13" target="node7" style="html=1;rounded=1;edgeStyle=orthogonalEdgeStyle;dashed=0;startArrow=none;endArrow=block;endSize=12;strokeColor=#000082;exitX=0.500;exitY=0.001;exitDx=0;exitDy=0;entryX=0.587;entryY=0.000;entryDx=0;entryDy=0;">
      <mxGeometry width="50" height="50" relative="1" as="geometry">
        <Array as="points">
          <mxPoint x="1613" y="1282" />
          <mxPoint x="999" y="1282" />
        </Array>
      </mxGeometry>
    </mxCell>
    <mxCell id="edge31" edge="1" value="" parent="1" source="node38" target="node7" style="html=1;rounded=1;edgeStyle=orthogonalEdgeStyle;dashed=0;startArrow=none;endArrow=block;endSize=12;strokeColor=#000082;exitX=0.500;exitY=1.001;exitDx=0;exitDy=0;entryX=0.587;entryY=0.000;entryDx=0;entryDy=0;">
      <mxGeometry width="50" height="50" relative="1" as="geometry">
        <Array as="points">
          <mxPoint x="2347" y="1123" />
          <mxPoint x="1427" y="1123" />
          <mxPoint x="1427" y="1282" />
          <mxPoint x="999" y="1282" />
        </Array>
      </mxGeometry>
    </mxCell>
    <mxCell id="edge28" edge="1" value="" parent="1" source="node99" target="node11" style="html=1;rounded=1;edgeStyle=orthogonalEdgeStyle;dashed=1;startArrow=none;endArrow=block;endSize=12;strokeColor=#008200;exitX=1.000;exitY=0.507;exitDx=0;exitDy=0;entryX=0.500;entryY=0.000;entryDx=0;entryDy=0;">
      <mxGeometry width="50" height="50" relative="1" as="geometry">
        <Array as="points">
          <mxPoint x="683" y="2250" />
          <mxPoint x="683" y="2127" />
          <mxPoint x="1131" y="2127" />
          <mxPoint x="1131" y="1488" />
          <mxPoint x="406" y="1488" />
        </Array>
      </mxGeometry>
    </mxCell>
    <mxCell id="edge56" edge="1" value="" parent="1" source="node97" target="node76" style="html=1;rounded=1;edgeStyle=orthogonalEdgeStyle;dashed=1;startArrow=none;endArrow=block;endSize=12;strokeColor=#008200;exitX=0.500;exitY=1.000;exitDx=0;exitDy=0;entryX=1.000;entryY=0.500;entryDx=0;entryDy=0;">
      <mxGeometry width="50" height="50" relative="1" as="geometry">
        <Array as="points">
          <mxPoint x="4030" y="1223" />
          <mxPoint x="3873" y="1223" />
          <mxPoint x="3873" y="707" />
        </Array>
      </mxGeometry>
    </mxCell>
    <mxCell id="edge23" edge="1" value="" parent="1" source="node62" target="node39" style="html=1;rounded=1;edgeStyle=orthogonalEdgeStyle;dashed=1;startArrow=none;endArrow=block;endSize=12;strokeColor=#008200;exitX=0.500;exitY=1.000;exitDx=0;exitDy=0;entryX=0.528;entryY=0.000;entryDx=0;entryDy=0;">
      <mxGeometry width="50" height="50" relative="1" as="geometry">
        <Array as="points">
          <mxPoint x="7367" y="1927" />
          <mxPoint x="6497" y="1927" />
          <mxPoint x="6497" y="1504" />
          <mxPoint x="5447" y="1504" />
          <mxPoint x="5447" y="465" />
          <mxPoint x="4809" y="465" />
        </Array>
      </mxGeometry>
    </mxCell>
    <mxCell id="edge64" edge="1" value="" parent="1" source="node10" target="node7" style="html=1;rounded=1;edgeStyle=orthogonalEdgeStyle;dashed=0;startArrow=none;endArrow=block;endSize=12;strokeColor=#000082;exitX=0.500;exitY=1.000;exitDx=0;exitDy=0;entryX=0.587;entryY=0.000;entryDx=0;entryDy=0;">
      <mxGeometry width="50" height="50" relative="1" as="geometry">
        <Array as="points">
          <mxPoint x="2069" y="1123" />
          <mxPoint x="1427" y="1123" />
          <mxPoint x="1427" y="1282" />
          <mxPoint x="999" y="1282" />
        </Array>
      </mxGeometry>
    </mxCell>
    <mxCell id="edge2" edge="1" value="" parent="1" source="node77" target="node55" style="html=1;rounded=1;edgeStyle=orthogonalEdgeStyle;dashed=0;startArrow=none;endArrow=block;endSize=12;strokeColor=#000082;exitX=1.000;exitY=0.620;exitDx=0;exitDy=0;entryX=0.221;entryY=0.000;entryDx=0;entryDy=0;">
      <mxGeometry width="50" height="50" relative="1" as="geometry">
        <Array as="points">
          <mxPoint x="1392" y="2712" />
          <mxPoint x="1392" y="2575" />
          <mxPoint x="3097" y="2575" />
        </Array>
      </mxGeometry>
    </mxCell>
    <mxCell id="edge6" edge="1" value="" parent="1" source="node7" target="node71" style="html=1;rounded=1;edgeStyle=orthogonalEdgeStyle;dashed=0;startArrow=none;endArrow=block;endSize=12;strokeColor=#000082;exitX=0.500;exitY=0.000;exitDx=0;exitDy=0;entryX=0.500;entryY=1.000;entryDx=0;entryDy=0;">
      <mxGeometry width="50" height="50" relative="1" as="geometry">
        <Array as="points">
          <mxPoint x="984" y="1505" />
          <mxPoint x="702" y="1505" />
        </Array>
      </mxGeometry>
    </mxCell>
    <mxCell id="edge9" edge="1" value="" parent="1" source="node42" target="node57" style="html=1;rounded=1;edgeStyle=orthogonalEdgeStyle;dashed=0;startArrow=none;endArrow=block;endSize=12;strokeColor=#000082;exitX=0.000;exitY=0.385;exitDx=0;exitDy=0;entryX=0.500;entryY=1.000;entryDx=0;entryDy=0;">
      <mxGeometry width="50" height="50" relative="1" as="geometry">
        <Array as="points">
          <mxPoint x="6512" y="1971" />
          <mxPoint x="6512" y="2000" />
          <mxPoint x="6169" y="2000" />
        </Array>
      </mxGeometry>
    </mxCell>
    <mxCell id="edge14" edge="1" value="" parent="1" source="node5" target="node21" style="html=1;rounded=1;edgeStyle=orthogonalEdgeStyle;dashed=0;startArrow=none;endArrow=block;endSize=12;strokeColor=#000082;exitX=0.430;exitY=1.000;exitDx=0;exitDy=0;entryX=1.000;entryY=0.500;entryDx=0;entryDy=0;">
      <mxGeometry width="50" height="50" relative="1" as="geometry">
        <Array as="points">
          <mxPoint x="5870" y="2834" />
          <mxPoint x="5889" y="2834" />
          <mxPoint x="5889" y="3549" />
          <mxPoint x="6830" y="3549" />
          <mxPoint x="6830" y="2701" />
        </Array>
      </mxGeometry>
    </mxCell>
    <mxCell id="edge1" edge="1" value="" parent="1" source="node55" target="node88" style="html=1;rounded=1;edgeStyle=orthogonalEdgeStyle;dashed=1;startArrow=none;endArrow=block;endSize=12;strokeColor=#008200;exitX=1.000;exitY=0.500;exitDx=0;exitDy=0;entryX=1.000;entryY=0.500;entryDx=0;entryDy=0;">
      <mxGeometry width="50" height="50" relative="1" as="geometry">
        <Array as="points">
          <mxPoint x="3429" y="3954" />
          <mxPoint x="3429" y="3306" />
          <mxPoint x="1850" y="3306" />
          <mxPoint x="1850" y="2605" />
          <mxPoint x="1717" y="2605" />
          <mxPoint x="1717" y="1813" />
        </Array>
      </mxGeometry>
    </mxCell>
    <mxCell id="edge27" edge="1" value="" parent="1" source="node53" target="node88" style="html=1;rounded=1;edgeStyle=orthogonalEdgeStyle;dashed=1;startArrow=none;endArrow=block;endSize=12;strokeColor=#008200;exitX=0.000;exitY=0.500;exitDx=0;exitDy=0;entryX=1.000;entryY=0.500;entryDx=0;entryDy=0;">
      <mxGeometry width="50" height="50" relative="1" as="geometry">
        <Array as="points">
          <mxPoint x="4070" y="3221" />
          <mxPoint x="4070" y="3675" />
          <mxPoint x="3429" y="3675" />
          <mxPoint x="3429" y="3306" />
          <mxPoint x="1850" y="3306" />
          <mxPoint x="1850" y="2605" />
          <mxPoint x="1717" y="2605" />
          <mxPoint x="1717" y="1813" />
        </Array>
      </mxGeometry>
    </mxCell>
    <mxCell id="edge24" edge="1" value="" parent="1" source="node84" target="node11" style="html=1;rounded=1;edgeStyle=orthogonalEdgeStyle;dashed=1;startArrow=none;endArrow=block;endSize=12;strokeColor=#008200;exitX=0.500;exitY=0.000;exitDx=0;exitDy=0;entryX=0.500;entryY=0.000;entryDx=0;entryDy=0;">
      <mxGeometry width="50" height="50" relative="1" as="geometry">
        <Array as="points">
          <mxPoint x="821" y="2127" />
          <mxPoint x="1131" y="2127" />
          <mxPoint x="1131" y="1488" />
          <mxPoint x="406" y="1488" />
        </Array>
      </mxGeometry>
    </mxCell>
    <mxCell id="edge21" edge="1" value="" parent="1" source="node26" target="node21" style="html=1;rounded=1;edgeStyle=orthogonalEdgeStyle;dashed=0;startArrow=none;endArrow=block;endSize=12;strokeColor=#000082;exitX=1.000;exitY=0.500;exitDx=0;exitDy=0;entryX=1.000;entryY=0.500;entryDx=0;entryDy=0;">
      <mxGeometry width="50" height="50" relative="1" as="geometry">
        <Array as="points">
          <mxPoint x="4634" y="3447" />
          <mxPoint x="4634" y="4207" />
          <mxPoint x="5889" y="4207" />
          <mxPoint x="5889" y="3549" />
          <mxPoint x="6830" y="3549" />
          <mxPoint x="6830" y="2701" />
        </Array>
      </mxGeometry>
    </mxCell>
    <mxCell id="edge35" edge="1" value="" parent="1" source="node78" target="node39" style="html=1;rounded=1;edgeStyle=orthogonalEdgeStyle;dashed=1;startArrow=none;endArrow=block;endSize=12;strokeColor=#008200;exitX=0.000;exitY=0.500;exitDx=0;exitDy=0;entryX=0.528;entryY=0.000;entryDx=0;entryDy=0;">
      <mxGeometry width="50" height="50" relative="1" as="geometry">
        <Array as="points">
          <mxPoint x="6879" y="2458" />
          <mxPoint x="6879" y="1927" />
          <mxPoint x="6497" y="1927" />
          <mxPoint x="6497" y="1504" />
          <mxPoint x="5447" y="1504" />
          <mxPoint x="5447" y="465" />
          <mxPoint x="4809" y="465" />
        </Array>
      </mxGeometry>
    </mxCell>
    <mxCell id="edge50" edge="1" value="" parent="1" source="node92" target="node57" style="html=1;rounded=1;edgeStyle=orthogonalEdgeStyle;dashed=0;startArrow=none;endArrow=block;endSize=12;strokeColor=#000082;exitX=0.500;exitY=0.000;exitDx=0;exitDy=0;entryX=0.500;entryY=1.000;entryDx=0;entryDy=0;">
      <mxGeometry width="50" height="50" relative="1" as="geometry">
        <Array as="points">
          <mxPoint x="6262" y="2000" />
          <mxPoint x="6169" y="2000" />
        </Array>
      </mxGeometry>
    </mxCell>
    <mxCell id="edge48" edge="1" value="" parent="1" source="node89" target="node71" style="html=1;rounded=1;edgeStyle=orthogonalEdgeStyle;dashed=0;startArrow=none;endArrow=block;endSize=12;strokeColor=#000082;exitX=0.500;exitY=1.001;exitDx=0;exitDy=0;entryX=0.500;entryY=1.000;entryDx=0;entryDy=0;">
      <mxGeometry width="50" height="50" relative="1" as="geometry">
        <Array as="points">
          <mxPoint x="505" y="1505" />
          <mxPoint x="702" y="1505" />
        </Array>
      </mxGeometry>
    </mxCell>
    <mxCell id="edge45" edge="1" value="" parent="1" source="node1" target="node88" style="html=1;rounded=1;edgeStyle=orthogonalEdgeStyle;dashed=1;startArrow=none;endArrow=block;endSize=12;strokeColor=#008200;exitX=0.637;exitY=1.000;exitDx=0;exitDy=0;entryX=1.000;entryY=0.500;entryDx=0;entryDy=0;">
      <mxGeometry width="50" height="50" relative="1" as="geometry">
        <Array as="points">
          <mxPoint x="3422" y="3306" />
          <mxPoint x="1850" y="3306" />
          <mxPoint x="1850" y="2605" />
          <mxPoint x="1717" y="2605" />
          <mxPoint x="1717" y="1813" />
        </Array>
      </mxGeometry>
    </mxCell>
    <mxCell id="edge22" edge="1" value="" parent="1" source="node98" target="node71" style="html=1;rounded=1;edgeStyle=orthogonalEdgeStyle;dashed=0;startArrow=none;endArrow=block;endSize=12;strokeColor=#000082;exitX=0.500;exitY=0.000;exitDx=0;exitDy=0;entryX=0.500;entryY=1.000;entryDx=0;entryDy=0;">
      <mxGeometry width="50" height="50" relative="1" as="geometry">
        <Array as="points">
          <mxPoint x="1300" y="1505" />
          <mxPoint x="702" y="1505" />
        </Array>
      </mxGeometry>
    </mxCell>
    <mxCell id="edge46" edge="1" value="" parent="1" source="node41" target="node57" style="html=1;rounded=1;edgeStyle=orthogonalEdgeStyle;dashed=0;startArrow=none;endArrow=block;endSize=12;strokeColor=#000082;exitX=1.000;exitY=0.500;exitDx=0;exitDy=0;entryX=0.500;entryY=1.000;entryDx=0;entryDy=0;">
      <mxGeometry width="50" height="50" relative="1" as="geometry">
        <Array as="points">
          <mxPoint x="6040" y="2351" />
          <mxPoint x="6040" y="2000" />
          <mxPoint x="6169" y="2000" />
        </Array>
      </mxGeometry>
    </mxCell>
    <mxCell id="edge10" edge="1" value="" parent="1" source="node47" target="node11" style="html=1;rounded=1;edgeStyle=orthogonalEdgeStyle;dashed=1;startArrow=none;endArrow=block;endSize=12;strokeColor=#008200;exitX=0.500;exitY=0.000;exitDx=0;exitDy=0;entryX=0.500;entryY=0.000;entryDx=0;entryDy=0;">
      <mxGeometry width="50" height="50" relative="1" as="geometry">
        <Array as="points">
          <mxPoint x="2567" y="1966" />
          <mxPoint x="2360" y="1966" />
          <mxPoint x="2360" y="1144" />
          <mxPoint x="2039" y="1144" />
          <mxPoint x="2039" y="1488" />
          <mxPoint x="406" y="1488" />
        </Array>
      </mxGeometry>
    </mxCell>
    <mxCell id="edge59" edge="1" value="" parent="1" source="node14" target="node17" style="html=1;rounded=1;edgeStyle=orthogonalEdgeStyle;dashed=1;startArrow=none;endArrow=block;endSize=12;strokeColor=#008200;exitX=0.021;exitY=1.000;exitDx=0;exitDy=0;entryX=1.000;entryY=0.500;entryDx=0;entryDy=0;">
      <mxGeometry width="50" height="50" relative="1" as="geometry">
        <Array as="points">
          <mxPoint x="4739" y="2739" />
          <mxPoint x="4699" y="2739" />
          <mxPoint x="4699" y="2775" />
          <mxPoint x="4092" y="2775" />
          <mxPoint x="4092" y="1297" />
          <mxPoint x="3091" y="1297" />
          <mxPoint x="3091" y="2243" />
          <mxPoint x="2706" y="2243" />
          <mxPoint x="2706" y="1340" />
        </Array>
      </mxGeometry>
    </mxCell>
    <mxCell id="edge19" edge="1" value="" parent="1" source="node36" target="node17" style="html=1;rounded=1;edgeStyle=orthogonalEdgeStyle;dashed=1;startArrow=none;endArrow=block;endSize=12;strokeColor=#008200;exitX=0.500;exitY=1.001;exitDx=0;exitDy=0;entryX=1.000;entryY=0.500;entryDx=0;entryDy=0;">
      <mxGeometry width="50" height="50" relative="1" as="geometry">
        <Array as="points">
          <mxPoint x="4921" y="2739" />
          <mxPoint x="4699" y="2739" />
          <mxPoint x="4699" y="2775" />
          <mxPoint x="4092" y="2775" />
          <mxPoint x="4092" y="1297" />
          <mxPoint x="3091" y="1297" />
          <mxPoint x="3091" y="2243" />
          <mxPoint x="2706" y="2243" />
          <mxPoint x="2706" y="1340" />
        </Array>
      </mxGeometry>
    </mxCell>
    <mxCell id="edge0" edge="1" value="" parent="1" source="node8" target="node52" style="html=1;rounded=1;edgeStyle=orthogonalEdgeStyle;dashed=1;startArrow=none;endArrow=block;endSize=12;strokeColor=#008200;exitX=1.000;exitY=0.653;exitDx=0;exitDy=0;entryX=0.000;entryY=0.500;entryDx=0;entryDy=0;">
      <mxGeometry width="50" height="50" relative="1" as="geometry">
        <Array as="points">
          <mxPoint x="7689" y="3259" />
          <mxPoint x="7689" y="2210" />
          <mxPoint x="7887" y="2210" />
          <mxPoint x="7887" y="1553" />
        </Array>
      </mxGeometry>
    </mxCell>
    <mxCell id="edge58" edge="1" value="" parent="1" source="node19" target="node21" style="html=1;rounded=1;edgeStyle=orthogonalEdgeStyle;dashed=0;startArrow=none;endArrow=block;endSize=12;strokeColor=#000082;exitX=0.461;exitY=1.001;exitDx=0;exitDy=0;entryX=1.000;entryY=0.500;entryDx=0;entryDy=0;">
      <mxGeometry width="50" height="50" relative="1" as="geometry">
        <Array as="points">
          <mxPoint x="2718" y="4703" />
          <mxPoint x="4253" y="4703" />
          <mxPoint x="4253" y="4192" />
          <mxPoint x="4634" y="4192" />
          <mxPoint x="4634" y="4207" />
          <mxPoint x="5889" y="4207" />
          <mxPoint x="5889" y="3549" />
          <mxPoint x="6830" y="3549" />
          <mxPoint x="6830" y="2701" />
        </Array>
      </mxGeometry>
    </mxCell>
    <mxCell id="edge29" edge="1" value="" parent="1" source="node29" target="node11" style="html=1;rounded=1;edgeStyle=orthogonalEdgeStyle;dashed=1;startArrow=none;endArrow=block;endSize=12;strokeColor=#008200;exitX=0.500;exitY=1.000;exitDx=0;exitDy=0;entryX=0.500;entryY=0.000;entryDx=0;entryDy=0;">
      <mxGeometry width="50" height="50" relative="1" as="geometry">
        <Array as="points">
          <mxPoint x="3044" y="1173" />
          <mxPoint x="2360" y="1173" />
          <mxPoint x="2360" y="1144" />
          <mxPoint x="2039" y="1144" />
          <mxPoint x="2039" y="1488" />
          <mxPoint x="406" y="1488" />
        </Array>
      </mxGeometry>
    </mxCell>
    <mxCell id="edge5" edge="1" value="" parent="1" source="node101" target="node52" style="html=1;rounded=1;edgeStyle=orthogonalEdgeStyle;dashed=1;startArrow=none;endArrow=block;endSize=12;strokeColor=#008200;exitX=0.000;exitY=0.500;exitDx=0;exitDy=0;entryX=0.000;entryY=0.500;entryDx=0;entryDy=0;">
      <mxGeometry width="50" height="50" relative="1" as="geometry">
        <Array as="points">
          <mxPoint x="7689" y="2987" />
          <mxPoint x="7689" y="2210" />
          <mxPoint x="7887" y="2210" />
          <mxPoint x="7887" y="1553" />
        </Array>
      </mxGeometry>
    </mxCell>
    <mxCell id="edge44" edge="1" value="" parent="1" source="node88" target="node76" style="html=1;rounded=1;edgeStyle=orthogonalEdgeStyle;dashed=0;startArrow=none;endArrow=block;endSize=12;strokeColor=#008200;exitX=0.500;exitY=0.001;exitDx=0;exitDy=0;entryX=0.500;entryY=0.001;entryDx=0;entryDy=0;">
      <mxGeometry width="50" height="50" relative="1" as="geometry">
        <Array as="points">
          <mxPoint x="1631" y="1577" />
          <mxPoint x="1406" y="1577" />
          <mxPoint x="1406" y="-35" />
          <mxPoint x="3668" y="-35" />
        </Array>
      </mxGeometry>
    </mxCell>
    <mxCell id="edge4" edge="1" value="" parent="1" source="node64" target="node57" style="html=1;rounded=1;edgeStyle=orthogonalEdgeStyle;dashed=0;startArrow=none;endArrow=block;endSize=12;strokeColor=#000082;exitX=0.500;exitY=0.001;exitDx=0;exitDy=0;entryX=0.500;entryY=1.000;entryDx=0;entryDy=0;">
      <mxGeometry width="50" height="50" relative="1" as="geometry">
        <Array as="points">
          <mxPoint x="7716" y="232" />
          <mxPoint x="6292" y="232" />
          <mxPoint x="6292" y="2000" />
          <mxPoint x="6169" y="2000" />
        </Array>
      </mxGeometry>
    </mxCell>
    <mxCell id="edge11" edge="1" value="" parent="1" source="node40" target="node71" style="html=1;rounded=1;edgeStyle=orthogonalEdgeStyle;dashed=0;startArrow=none;endArrow=block;endSize=12;strokeColor=#000082;exitX=0.500;exitY=0.000;exitDx=0;exitDy=0;entryX=0.500;entryY=1.000;entryDx=0;entryDy=0;">
      <mxGeometry width="50" height="50" relative="1" as="geometry">
        <Array as="points">
          <mxPoint x="704" y="1505" />
          <mxPoint x="702" y="1505" />
        </Array>
      </mxGeometry>
    </mxCell>
    <mxCell id="edge16" edge="1" value="" parent="1" source="node0" target="node39" style="html=1;rounded=1;edgeStyle=orthogonalEdgeStyle;dashed=1;startArrow=none;endArrow=block;endSize=12;strokeColor=#008200;exitX=1.000;exitY=0.500;exitDx=0;exitDy=0;entryX=0.528;entryY=0.000;entryDx=0;entryDy=0;">
      <mxGeometry width="50" height="50" relative="1" as="geometry">
        <Array as="points">
          <mxPoint x="6879" y="2552" />
          <mxPoint x="6879" y="1927" />
          <mxPoint x="6497" y="1927" />
          <mxPoint x="6497" y="1504" />
          <mxPoint x="5447" y="1504" />
          <mxPoint x="5447" y="465" />
          <mxPoint x="4809" y="465" />
        </Array>
      </mxGeometry>
    </mxCell>
    <mxCell id="edge12" edge="1" value="" parent="1" source="node54" target="node76" style="html=1;rounded=1;edgeStyle=orthogonalEdgeStyle;dashed=1;startArrow=none;endArrow=block;endSize=12;strokeColor=#008200;exitX=1.000;exitY=0.500;exitDx=0;exitDy=0;entryX=1.000;entryY=0.500;entryDx=0;entryDy=0;">
      <mxGeometry width="50" height="50" relative="1" as="geometry">
        <Array as="points">
          <mxPoint x="3873" y="247" />
          <mxPoint x="3873" y="707" />
        </Array>
      </mxGeometry>
    </mxCell>
    <mxCell id="edge63" edge="1" value="" parent="1" source="node2" target="node11" style="html=1;rounded=1;edgeStyle=orthogonalEdgeStyle;dashed=1;startArrow=none;endArrow=block;endSize=12;strokeColor=#008200;exitX=0.000;exitY=0.500;exitDx=0;exitDy=0;entryX=0.500;entryY=0.000;entryDx=0;entryDy=0;">
      <mxGeometry width="50" height="50" relative="1" as="geometry">
        <Array as="points">
          <mxPoint x="2360" y="1528" />
          <mxPoint x="2360" y="1144" />
          <mxPoint x="2039" y="1144" />
          <mxPoint x="2039" y="1488" />
          <mxPoint x="406" y="1488" />
        </Array>
      </mxGeometry>
    </mxCell>
    <mxCell id="edge36" edge="1" value="" parent="1" source="node102" target="node17" style="html=1;rounded=1;edgeStyle=orthogonalEdgeStyle;dashed=1;startArrow=none;endArrow=block;endSize=12;strokeColor=#008200;exitX=0.500;exitY=1.001;exitDx=0;exitDy=0;entryX=1.000;entryY=0.500;entryDx=0;entryDy=0;">
      <mxGeometry width="50" height="50" relative="1" as="geometry">
        <Array as="points">
          <mxPoint x="5619" y="2775" />
          <mxPoint x="4092" y="2775" />
          <mxPoint x="4092" y="1297" />
          <mxPoint x="3091" y="1297" />
          <mxPoint x="3091" y="2243" />
          <mxPoint x="2706" y="2243" />
          <mxPoint x="2706" y="1340" />
        </Array>
      </mxGeometry>
    </mxCell>
    <mxCell id="edge7" edge="1" value="" parent="1" source="node102" target="node39" style="html=1;rounded=1;edgeStyle=orthogonalEdgeStyle;dashed=1;startArrow=none;endArrow=block;endSize=12;strokeColor=#008200;exitX=0.811;exitY=1.001;exitDx=0;exitDy=0;entryX=0.528;entryY=0.000;entryDx=0;entryDy=0;">
      <mxGeometry width="50" height="50" relative="1" as="geometry">
        <Array as="points">
          <mxPoint x="5687" y="2849" />
          <mxPoint x="6497" y="2849" />
          <mxPoint x="6497" y="1504" />
          <mxPoint x="5447" y="1504" />
          <mxPoint x="5447" y="465" />
          <mxPoint x="4809" y="465" />
        </Array>
      </mxGeometry>
    </mxCell>
    <mxCell id="edge32" edge="1" value="" parent="1" source="node82" target="node17" style="html=1;rounded=1;edgeStyle=orthogonalEdgeStyle;dashed=1;startArrow=none;endArrow=block;endSize=12;strokeColor=#008200;exitX=0.500;exitY=1.000;exitDx=0;exitDy=0;entryX=1.000;entryY=0.500;entryDx=0;entryDy=0;">
      <mxGeometry width="50" height="50" relative="1" as="geometry">
        <Array as="points">
          <mxPoint x="4244" y="2775" />
          <mxPoint x="4092" y="2775" />
          <mxPoint x="4092" y="1297" />
          <mxPoint x="3091" y="1297" />
          <mxPoint x="3091" y="2243" />
          <mxPoint x="2706" y="2243" />
          <mxPoint x="2706" y="1340" />
        </Array>
      </mxGeometry>
    </mxCell>
    <mxCell id="edge51" edge="1" value="" parent="1" source="node56" target="node11" style="html=1;rounded=1;edgeStyle=orthogonalEdgeStyle;dashed=1;startArrow=none;endArrow=block;endSize=12;strokeColor=#008200;exitX=1.000;exitY=0.500;exitDx=0;exitDy=0;entryX=0.500;entryY=0.000;entryDx=0;entryDy=0;">
      <mxGeometry width="50" height="50" relative="1" as="geometry">
        <Array as="points">
          <mxPoint x="2039" y="2257" />
          <mxPoint x="2039" y="1488" />
          <mxPoint x="406" y="1488" />
        </Array>
      </mxGeometry>
    </mxCell>
    <mxCell id="edge25" edge="1" value="" parent="1" source="node21" target="node39" style="html=1;rounded=1;edgeStyle=orthogonalEdgeStyle;dashed=1;startArrow=none;endArrow=block;endSize=12;strokeColor=#008200;exitX=0.000;exitY=0.500;exitDx=0;exitDy=0;entryX=0.528;entryY=0.000;entryDx=0;entryDy=0;">
      <mxGeometry width="50" height="50" relative="1" as="geometry">
        <Array as="points">
          <mxPoint x="6497" y="2701" />
          <mxPoint x="6497" y="1504" />
          <mxPoint x="5447" y="1504" />
          <mxPoint x="5447" y="465" />
          <mxPoint x="4809" y="465" />
        </Array>
      </mxGeometry>
    </mxCell>
    <mxCell id="edge15" edge="1" value="" parent="1" source="node105" target="node76" style="html=1;rounded=1;edgeStyle=orthogonalEdgeStyle;dashed=1;startArrow=none;endArrow=block;endSize=12;strokeColor=#008200;exitX=0.000;exitY=0.008;exitDx=0;exitDy=0;entryX=1.000;entryY=0.500;entryDx=0;entryDy=0;">
      <mxGeometry width="50" height="50" relative="1" as="geometry">
        <Array as="points">
          <mxPoint x="6929" y="1527" />
          <mxPoint x="6929" y="1223" />
          <mxPoint x="3873" y="1223" />
          <mxPoint x="3873" y="707" />
        </Array>
      </mxGeometry>
    </mxCell>
    <mxCell id="edge40" edge="1" value="" parent="1" source="node105" target="node39" style="html=1;rounded=1;edgeStyle=orthogonalEdgeStyle;dashed=1;startArrow=none;endArrow=block;endSize=12;strokeColor=#008200;exitX=0.000;exitY=0.096;exitDx=0;exitDy=0;entryX=0.528;entryY=0.000;entryDx=0;entryDy=0;">
      <mxGeometry width="50" height="50" relative="1" as="geometry">
        <Array as="points">
          <mxPoint x="6879" y="1542" />
          <mxPoint x="6879" y="1927" />
          <mxPoint x="6497" y="1927" />
          <mxPoint x="6497" y="1504" />
          <mxPoint x="5447" y="1504" />
          <mxPoint x="5447" y="465" />
          <mxPoint x="4809" y="465" />
        </Array>
      </mxGeometry>
    </mxCell>
    <mxCell id="edge8" edge="1" value="" parent="1" source="node17" target="node76" style="html=1;rounded=1;edgeStyle=orthogonalEdgeStyle;dashed=0;startArrow=none;endArrow=block;endSize=12;strokeColor=#008200;exitX=0.511;exitY=0.000;exitDx=0;exitDy=0;entryX=0.500;entryY=0.001;entryDx=0;entryDy=0;">
      <mxGeometry width="50" height="50" relative="1" as="geometry">
        <Array as="points">
          <mxPoint x="2461" y="950" />
          <mxPoint x="1406" y="950" />
          <mxPoint x="1406" y="-35" />
          <mxPoint x="3668" y="-35" />
        </Array>
      </mxGeometry>
    </mxCell>
    <mxCell id="edge3" edge="1" value="" parent="1" source="node30" target="node39" style="html=1;rounded=1;edgeStyle=orthogonalEdgeStyle;dashed=1;startArrow=none;endArrow=block;endSize=12;strokeColor=#008200;exitX=0.000;exitY=0.500;exitDx=0;exitDy=0;entryX=0.528;entryY=0.000;entryDx=0;entryDy=0;">
      <mxGeometry width="50" height="50" relative="1" as="geometry">
        <Array as="points">
          <mxPoint x="6879" y="2255" />
          <mxPoint x="6879" y="1927" />
          <mxPoint x="6497" y="1927" />
          <mxPoint x="6497" y="1504" />
          <mxPoint x="5447" y="1504" />
          <mxPoint x="5447" y="465" />
          <mxPoint x="4809" y="465" />
        </Array>
      </mxGeometry>
    </mxCell>
    <mxCell id="edge41" edge="1" value="" parent="1" source="node24" target="node17" style="html=1;rounded=1;edgeStyle=orthogonalEdgeStyle;dashed=1;startArrow=none;endArrow=block;endSize=12;strokeColor=#008200;exitX=0.196;exitY=1.000;exitDx=0;exitDy=0;entryX=1.000;entryY=0.500;entryDx=0;entryDy=0;">
      <mxGeometry width="50" height="50" relative="1" as="geometry">
        <Array as="points">
          <mxPoint x="5774" y="2775" />
          <mxPoint x="4092" y="2775" />
          <mxPoint x="4092" y="1297" />
          <mxPoint x="3091" y="1297" />
          <mxPoint x="3091" y="2243" />
          <mxPoint x="2706" y="2243" />
          <mxPoint x="2706" y="1340" />
        </Array>
      </mxGeometry>
    </mxCell>
    <mxCell id="edge20" edge="1" value="" parent="1" source="node24" target="node39" style="html=1;rounded=1;edgeStyle=orthogonalEdgeStyle;dashed=1;startArrow=none;endArrow=block;endSize=12;strokeColor=#008200;exitX=1.000;exitY=0.500;exitDx=0;exitDy=0;entryX=0.528;entryY=0.000;entryDx=0;entryDy=0;">
      <mxGeometry width="50" height="50" relative="1" as="geometry">
        <Array as="points">
          <mxPoint x="6055" y="2515" />
          <mxPoint x="6055" y="2021" />
          <mxPoint x="6497" y="2021" />
          <mxPoint x="6497" y="1504" />
          <mxPoint x="5447" y="1504" />
          <mxPoint x="5447" y="465" />
          <mxPoint x="4809" y="465" />
        </Array>
      </mxGeometry>
    </mxCell>
    <mxCell id="edge62" edge="1" value="" parent="1" source="node11" target="node76" style="html=1;rounded=1;edgeStyle=orthogonalEdgeStyle;dashed=0;startArrow=none;endArrow=block;endSize=12;strokeColor=#008200;exitX=0.451;exitY=0.001;exitDx=0;exitDy=0;entryX=0.500;entryY=0.001;entryDx=0;entryDy=0;">
      <mxGeometry width="50" height="50" relative="1" as="geometry">
        <Array as="points">
          <mxPoint x="391" y="950" />
          <mxPoint x="1406" y="950" />
          <mxPoint x="1406" y="-35" />
          <mxPoint x="3668" y="-35" />
        </Array>
      </mxGeometry>
    </mxCell>
    <mxCell id="edge49" edge="1" value="" parent="1" source="node12" target="node11" style="html=1;rounded=1;edgeStyle=orthogonalEdgeStyle;dashed=1;startArrow=none;endArrow=block;endSize=12;strokeColor=#008200;exitX=1.000;exitY=0.500;exitDx=0;exitDy=0;entryX=0.500;entryY=0.000;entryDx=0;entryDy=0;">
      <mxGeometry width="50" height="50" relative="1" as="geometry">
        <Array as="points">
          <mxPoint x="236" y="2215" />
          <mxPoint x="236" y="1488" />
          <mxPoint x="406" y="1488" />
        </Array>
      </mxGeometry>
    </mxCell>
    <mxCell id="edge26" edge="1" value="" parent="1" source="node100" target="node39" style="html=1;rounded=1;edgeStyle=orthogonalEdgeStyle;dashed=1;startArrow=none;endArrow=block;endSize=12;strokeColor=#008200;exitX=0.500;exitY=0.000;exitDx=0;exitDy=0;entryX=0.528;entryY=0.000;entryDx=0;entryDy=0;">
      <mxGeometry width="50" height="50" relative="1" as="geometry">
        <Array as="points">
          <mxPoint x="7201" y="1927" />
          <mxPoint x="6497" y="1927" />
          <mxPoint x="6497" y="1504" />
          <mxPoint x="5447" y="1504" />
          <mxPoint x="5447" y="465" />
          <mxPoint x="4809" y="465" />
        </Array>
      </mxGeometry>
    </mxCell>
    <mxCell id="edge47" edge="1" value="" parent="1" source="node69" target="node11" style="html=1;rounded=1;edgeStyle=orthogonalEdgeStyle;dashed=1;startArrow=none;endArrow=block;endSize=12;strokeColor=#008200;exitX=0.500;exitY=0.000;exitDx=0;exitDy=0;entryX=0.500;entryY=0.000;entryDx=0;entryDy=0;">
      <mxGeometry width="50" height="50" relative="1" as="geometry">
        <Array as="points">
          <mxPoint x="1193" y="2127" />
          <mxPoint x="1131" y="2127" />
          <mxPoint x="1131" y="1488" />
          <mxPoint x="406" y="1488" />
        </Array>
      </mxGeometry>
    </mxCell>
    <mxCell id="edge34" edge="1" value="" parent="1" source="node60" target="node71" style="html=1;rounded=1;edgeStyle=orthogonalEdgeStyle;dashed=0;startArrow=none;endArrow=block;endSize=12;strokeColor=#000082;exitX=0.500;exitY=1.000;exitDx=0;exitDy=0;entryX=0.500;entryY=1.000;entryDx=0;entryDy=0;">
      <mxGeometry width="50" height="50" relative="1" as="geometry">
        <Array as="points">
          <mxPoint x="1755" y="1505" />
          <mxPoint x="702" y="1505" />
        </Array>
      </mxGeometry>
    </mxCell>
  </root>
</mxGraphModel>